<?xml version="1.0" encoding="utf-8"?>
<!-- Generator: Adobe Illustrator 24.0.2, SVG Export Plug-In . SVG Version: 6.00 Build 0)  -->
<svg version="1.1" id="Layer_1" xmlns="http://www.w3.org/2000/svg" xmlns:xlink="http://www.w3.org/1999/xlink" x="0px" y="0px"
	 viewBox="0 0 949.7 482.3" style="enable-background:new 0 0 949.7 482.3;" xml:space="preserve">
<style type="text/css">
	.st0{fill:#F2F2F2;}
	.st1{fill:#FFFFFF;}
	.st2{fill:#3F3D56;}
	.st3{fill:#AACDBE;}
	.st4{fill:#CCCCCC;}
	.st5{fill:#A0616A;}
	.st6{fill:#2F2E41;}
</style>
<path class="st0" d="M910.3,462.9c-27.6,19.9-63.5,20.9-98.1,18.5c-4.8-0.3-9.6-0.7-14.4-1.2c0,0-0.1,0-0.1,0c-0.2,0-0.5,0-0.7-0.1
	c-1-0.1-2-0.2-2.9-0.3l0.2,0.4l0.7,1.4c-0.3-0.5-0.5-0.9-0.8-1.4c-0.1-0.1-0.2-0.3-0.2-0.4c-9-15.6-17.9-31.8-20.1-49.6
	c-2.3-18.5,4.2-39.4,20.5-48.5c2.1-1.2,4.4-2.1,6.7-2.8c1-0.3,2-0.5,3-0.7c19-4.2,37.8,7.8,42,26.7c1.4,6.3,1,12.9-1.1,19
	c13.8-14.2,11.2-37.1,6.5-56.3c-4.8-19.2-10.5-40.5-0.8-57.8c5.4-9.6,14.9-15.5,25.5-17.9c0.3-0.1,0.7-0.1,1-0.2
	c12.7-2.6,25.9-0.3,36.9,6.5c20.4,12.8,30.8,37.1,34.2,61C953.8,397.5,941.8,440.3,910.3,462.9z"/>
<path class="st1" d="M901.4,401.4c-0.8,8.5-2.8,16.8-6,24.6c-2.9,7-6.9,13.4-11.8,19.2c-9.9,12-23.1,20.9-37.3,26.9
	c-10.9,4.5-22.3,7.5-34,9.1c-4.8-0.3-9.6-0.7-14.4-1.2c0,0-0.1,0-0.1,0c-0.2,0-0.5,0-0.7-0.1c-1-0.1-2-0.2-2.9-0.3l0.2,0.4l0.7,1.4
	c-0.3-0.5-0.5-0.9-0.8-1.4c-0.1-0.1-0.2-0.3-0.2-0.4c17.8-17.7,25.8-42.9,21.7-67.6c-2.2-12.1-7.1-23.5-14.5-33.3c1-0.3,2-0.5,3-0.7
	c2.8,3.8,5.3,7.9,7.4,12.2c7.5,15.3,9.9,32.6,6.8,49.3c-2.9,15.1-10,29.2-20.5,40.4c0.9-0.1,1.9-0.1,2.8-0.2
	c17.3-1.5,34.5-5.2,50.2-12.8c13.4-6.3,25-15.9,33.9-27.8c9.5-13.1,13.7-28.8,14.4-44.9c0.8-17.1-1.5-34.6-5.4-51.2
	c-4-17.1-10.1-33.6-18.1-49.2c-0.4-0.7-0.1-1.6,0.6-2c0.3-0.2,0.6-0.3,1-0.2c0.3,0.1,0.6,0.3,0.8,0.6c1,1.9,2,3.9,2.9,5.8
	c7.8,16.3,13.5,33.4,17,51.1C901.4,366.3,903.2,384.1,901.4,401.4z"/>
<path class="st0" d="M540.5,471.7c14.1,10.2,32.4,10.7,50.1,9.4c2.5-0.2,4.9-0.4,7.4-0.6c0,0,0,0,0,0c0.1,0,0.2,0,0.3,0
	c0.5,0,1-0.1,1.5-0.1l-0.1,0.2l-0.4,0.7c0.1-0.2,0.3-0.5,0.4-0.7c0-0.1,0.1-0.1,0.1-0.2c4.6-8,9.1-16.2,10.3-25.3
	c1.2-9.5-2.2-20.2-10.5-24.8c-1.1-0.6-2.2-1.1-3.4-1.4c-0.5-0.2-1-0.3-1.5-0.4c-9.7-2.2-19.3,4-21.5,13.7c-0.7,3.2-0.5,6.6,0.5,9.7
	c-7.1-7.2-5.7-19-3.3-28.8c2.4-9.8,5.4-20.7,0.4-29.5c-2.8-4.8-7.6-8.1-13-9.2c-0.2,0-0.3-0.1-0.5-0.1c-6.5-1.3-13.2-0.1-18.9,3.3
	c-10.4,6.6-15.7,19-17.5,31.1C518.2,438.3,524.4,460.1,540.5,471.7z"/>
<path class="st1" d="M545,440.3c0.4,4.3,1.4,8.6,3.1,12.6c1.5,3.6,3.5,6.9,6,9.8c5.2,6,11.7,10.8,19.1,13.8
	c5.6,2.3,11.4,3.9,17.4,4.7c2.5-0.2,4.9-0.4,7.4-0.6c0,0,0,0,0,0c0.1,0,0.2,0,0.3,0c0.5,0,1-0.1,1.5-0.1l-0.1,0.2l-0.4,0.7
	c0.1-0.2,0.3-0.5,0.4-0.7c0-0.1,0.1-0.1,0.1-0.2c-9.1-9-13.2-21.9-11.1-34.6c1.1-6.2,3.6-12,7.4-17c-0.5-0.2-1-0.3-1.5-0.4
	c-1.4,2-2.7,4.1-3.8,6.2c-3.8,7.8-5.1,16.6-3.5,25.2c1.5,7.7,5.1,14.9,10.5,20.6c-0.5,0-0.9-0.1-1.4-0.1c-8.9-0.6-17.6-2.8-25.6-6.5
	c-6.8-3.2-12.8-8.1-17.3-14.2c-4.8-6.7-7-14.7-7.4-22.9c-0.3-8.8,0.6-17.6,2.7-26.2c2-8.7,5.1-17.2,9.2-25.1c0.2-0.4,0.1-0.8-0.3-1
	c-0.1-0.1-0.3-0.1-0.5-0.1c-0.2,0-0.3,0.2-0.4,0.3c-0.5,1-1,2-1.5,3c-4,8.3-6.9,17.1-8.7,26.1C544.9,422.4,544.3,431.4,545,440.3z"
	/>
<path class="st2" d="M164,13.2H17c-9.4,0-17,7.6-17,17v231c0,9.4,7.6,17,17,17h147c9.4,0,17-7.6,17-17v-231
	C181,20.8,173.4,13.2,164,13.2z M179,261.2c0,8.3-6.7,15-15,15H17c-8.3,0-15-6.7-15-15v-231c0-8.3,6.7-15,15-15h147
	c8.3,0,15,6.7,15,15V261.2z"/>
<path class="st2" d="M479,278.2H332c-9.4,0-17-7.6-17-17v-231c0-9.4,7.6-17,17-17h147c9.4,0,17,7.6,17,17v231
	C496,270.6,488.4,278.2,479,278.2z M332,15.2c-8.3,0-15,6.7-15,15v231c0,8.3,6.7,15,15,15h147c8.3,0,15-6.7,15-15v-231
	c0-8.3-6.7-15-15-15H332z"/>
<path class="st2" d="M268,147.2h-61c-0.6,0-1-0.4-1-1s0.4-1,1-1h61c0.6,0,1,0.4,1,1S268.6,147.2,268,147.2z"/>
<path class="st2" d="M255,174.6c-0.6,0-1-0.4-1-1c0-0.3,0.1-0.6,0.4-0.8l31.8-24.2c1.3-1,1.6-2.9,0.6-4.2c-0.2-0.2-0.4-0.4-0.6-0.6
	l-31.8-24.2c-0.4-0.3-0.5-1-0.2-1.4s1-0.5,1.4-0.2l0,0l31.8,24.2c2.2,1.7,2.6,4.8,0.9,7c-0.3,0.4-0.6,0.7-0.9,0.9l-31.8,24.2
	C255.4,174.6,255.2,174.6,255,174.6z"/>
<path class="st2" d="M582,147.2h-61c-0.6,0-1-0.4-1-1s0.4-1,1-1h61c0.6,0,1,0.4,1,1S582.6,147.2,582,147.2z"/>
<path class="st2" d="M569,174.6c-0.6,0-1-0.4-1-1c0-0.3,0.1-0.6,0.4-0.8l31.8-24.2c1.3-1,1.6-2.9,0.6-4.2c-0.2-0.2-0.4-0.4-0.6-0.6
	l-31.8-24.2c-0.4-0.3-0.5-1-0.2-1.4s1-0.5,1.4-0.2l0,0l31.8,24.2c2.2,1.7,2.6,4.8,0.9,7c-0.3,0.4-0.6,0.7-0.9,0.9l-31.8,24.2
	C569.4,174.6,569.2,174.6,569,174.6z"/>
<path class="st3" d="M423.5,106.7h-35c-4.7,0-8.5-3.8-8.5-8.5v-34c0-4.7,3.8-8.5,8.5-8.5h35c4.7,0,8.5,3.8,8.5,8.5v34
	C432,102.9,428.2,106.7,423.5,106.7z"/>
<path class="st1" d="M430,106.2c-0.3,0-0.5-0.1-0.7-0.3l-48-48c-0.4-0.4-0.4-1,0-1.4c0.4-0.4,1-0.4,1.4,0l48,48c0.4,0.4,0.4,1,0,1.4
	C430.5,106.1,430.3,106.2,430,106.2L430,106.2z"/>
<path class="st1" d="M382,106.2c-0.6,0-1-0.4-1-1c0-0.3,0.1-0.5,0.3-0.7l48-48c0.4-0.4,1-0.4,1.4,0s0.4,1,0,1.4l0,0l-48,48
	C382.5,106.1,382.3,106.2,382,106.2z"/>
<path class="st2" d="M438,159.2h-65c-6.9,0-12.5-5.6-12.5-12.5s5.6-12.5,12.5-12.5h65c6.9,0,12.5,5.6,12.5,12.5
	S444.9,159.2,438,159.2z M373,136.2c-5.8,0-10.5,4.7-10.5,10.5s4.7,10.5,10.5,10.5h65c5.8,0,10.5-4.7,10.5-10.5s-4.7-10.5-10.5-10.5
	H373z"/>
<path class="st2" d="M438,197.2h-65c-6.9,0-12.5-5.6-12.5-12.5s5.6-12.5,12.5-12.5h65c6.9,0,12.5,5.6,12.5,12.5
	S444.9,197.2,438,197.2z M373,174.2c-5.8,0-10.5,4.7-10.5,10.5s4.7,10.5,10.5,10.5h65c5.8,0,10.5-4.7,10.5-10.5s-4.7-10.5-10.5-10.5
	H373z"/>
<path class="st2" d="M438,235.2h-65c-6.9,0-12.5-5.6-12.5-12.5s5.6-12.5,12.5-12.5h65c6.9,0,12.5,5.6,12.5,12.5
	S444.9,235.2,438,235.2z M373,212.2c-5.8,0-10.5,4.7-10.5,10.5s4.7,10.5,10.5,10.5h65c5.8,0,10.5-4.7,10.5-10.5s-4.7-10.5-10.5-10.5
	H373z"/>
<path class="st2" d="M780.8,0.2l-145,24.1c-9.3,1.5-15.5,10.3-14,19.6l37.8,227.9c1.5,9.3,10.3,15.5,19.6,14l145-24.1
	c9.3-1.5,15.5-10.3,14-19.6L800.4,14.2C798.8,5,790.1-1.3,780.8,0.2z M836.2,242.4c1.3,8.2-4.2,15.9-12.3,17.3l-145,24.1
	c-8.2,1.3-15.9-4.2-17.3-12.3L623.8,43.5c-1.3-8.2,4.2-15.9,12.3-17.3l145-24.1c8.2-1.3,15.9,4.2,17.3,12.3L836.2,242.4z"/>
<path class="st4" d="M755.3,93.7l-64.1,10.6c-6.8,1.1-13.2-3.5-14.4-10.3c-1.1-6.8,3.5-13.2,10.3-14.4l0,0L751.2,69
	c6.8-1.1,13.2,3.5,14.4,10.3C766.7,86.1,762.1,92.5,755.3,93.7L755.3,93.7z M687.4,81.6c-5.7,1-9.6,6.4-8.6,12.1
	c1,5.7,6.4,9.6,12.1,8.6L755,91.7c5.7-1,9.6-6.4,8.6-12.1c-1-5.7-6.4-9.6-12.1-8.6L687.4,81.6z"/>
<path class="st4" d="M762.8,139.1l-64.1,10.6c-6.8,1.1-13.3-3.5-14.4-10.3c-1.1-6.8,3.5-13.3,10.3-14.4c0,0,0,0,0,0l64.1-10.6
	c6.8-1.1,13.2,3.5,14.4,10.3C774.2,131.5,769.6,137.9,762.8,139.1L762.8,139.1z M694.9,127c-5.7,1-9.6,6.4-8.6,12.1
	c1,5.7,6.4,9.6,12.1,8.6l64.1-10.6c5.7-1,9.6-6.4,8.6-12.1c-1-5.7-6.4-9.6-12.1-8.6L694.9,127z"/>
<path class="st4" d="M770.3,184.4l-64.1,10.6c-6.8,1.1-13.3-3.5-14.4-10.3c-1.1-6.8,3.5-13.3,10.3-14.4c0,0,0,0,0,0l64.1-10.6
	c6.8-1.1,13.2,3.5,14.4,10.3C781.7,176.9,777.1,183.3,770.3,184.4z M702.5,172.4c-5.7,0.9-9.6,6.3-8.7,12.1s6.3,9.6,12.1,8.7
	c0,0,0,0,0,0l64.1-10.6c5.7-0.9,9.6-6.3,8.7-12.1s-6.3-9.6-12.1-8.7c0,0,0,0,0,0L702.5,172.4z"/>
<path class="st4" d="M777.9,229.8l-64.1,10.6c-6.8,1.1-13.2-3.5-14.4-10.3c-1.1-6.8,3.5-13.2,10.3-14.4l0,0l64.1-10.6
	c6.8-1.1,13.2,3.5,14.4,10.3C789.3,222.3,784.7,228.7,777.9,229.8L777.9,229.8z M710,217.8c-5.7,0.9-9.6,6.4-8.6,12.1
	c0.9,5.7,6.4,9.6,12.1,8.6l0,0l64.1-10.6c5.7-1,9.6-6.4,8.6-12.1c-1-5.7-6.4-9.6-12.1-8.6L710,217.8z"/>
<path class="st2" d="M801.6,27.6L625,56.9c-0.5,0.1-1.1-0.3-1.2-0.8c-0.1-0.5,0.3-1.1,0.8-1.2c0,0,0,0,0,0l176.6-29.3
	c0.5-0.1,1.1,0.3,1.2,0.8S802.1,27.5,801.6,27.6C801.6,27.6,801.6,27.6,801.6,27.6L801.6,27.6z"/>
<circle class="st3" cx="644.2" cy="38.1" r="7"/>
<path class="st2" d="M783.6,10.9l-19.7,3.3c-0.5,0.1-1.1-0.3-1.1-0.8c-0.1-0.5,0.3-1.1,0.8-1.1l19.7-3.3c0.5-0.1,1.1,0.3,1.1,0.8
	C784.5,10.3,784.2,10.8,783.6,10.9z"/>
<path class="st2" d="M784.6,16.8l-19.7,3.3c-0.5,0.1-1.1-0.3-1.1-0.8c-0.1-0.5,0.3-1.1,0.8-1.1l19.7-3.3c0.5-0.1,1.1,0.3,1.1,0.8
	C785.5,16.2,785.1,16.7,784.6,16.8L784.6,16.8z"/>
<path class="st2" d="M785.6,22.8L765.9,26c-0.5,0.1-1.1-0.3-1.2-0.8s0.3-1.1,0.8-1.2c0,0,0,0,0,0l19.7-3.3c0.5-0.1,1.1,0.3,1.2,0.8
	S786.1,22.7,785.6,22.8C785.6,22.8,785.6,22.8,785.6,22.8z"/>
<path class="st3" d="M128,163.7H53c-4.7,0-8.5-3.8-8.5-8.5v-76c0-4.7,3.8-8.5,8.5-8.5h75c4.7,0,8.5,3.8,8.5,8.5v76
	C136.5,159.9,132.7,163.7,128,163.7z"/>
<path class="st2" d="M122.5,220.2h-65c-6.9,0-12.5-5.6-12.5-12.5s5.6-12.5,12.5-12.5h65c6.9,0,12.5,5.6,12.5,12.5
	S129.4,220.2,122.5,220.2z M57.5,197.2c-5.8,0-10.5,4.7-10.5,10.5s4.7,10.5,10.5,10.5h65c5.8,0,10.5-4.7,10.5-10.5
	s-4.7-10.5-10.5-10.5H57.5z"/>
<path class="st1" d="M134.5,162.2c-0.3,0-0.5-0.1-0.7-0.3l-88-88c-0.4-0.4-0.4-1,0-1.4c0.4-0.4,1-0.4,1.4,0c0,0,0,0,0,0l88,88
	c0.4,0.4,0.4,1,0,1.4C135,162.1,134.8,162.2,134.5,162.2L134.5,162.2z"/>
<path class="st1" d="M46.5,162.2c-0.6,0-1-0.4-1-1c0-0.3,0.1-0.5,0.3-0.7l88-88c0.4-0.4,1-0.4,1.4,0c0.4,0.4,0.4,1,0,1.4
	c0,0,0,0,0,0l-88,88C47,162.1,46.8,162.2,46.5,162.2z"/>
<path class="st5" d="M819.1,264.4c1.7-5.7-1.4-11.7-7.1-13.4c-0.6-0.2-1.2-0.3-1.9-0.4l-51.3-60l-12,12.6l51.1,57.5
	c-0.3,6,4.2,11.1,10.2,11.4C813.1,272.4,817.6,269.2,819.1,264.4L819.1,264.4z"/>
<path class="st3" d="M773.6,203.2l-18.3,13.4c-2,1.5-4.8,1-6.3-1c-0.1-0.2-0.2-0.4-0.3-0.6l-10.5-20.1c-4-5.6-2.8-13.4,2.8-17.4
	c5.6-4,13.3-2.8,17.4,2.8l15.9,16.1c1.7,1.8,1.7,4.6,0,6.4C774,203,773.8,203.1,773.6,203.2L773.6,203.2z"/>
<circle class="st5" cx="738.2" cy="138.6" r="24.6"/>
<path class="st6" d="M748.9,249.4c-0.3,0-0.5,0-0.8-0.1l-43.1-7.3c-2.1-0.4-3.7-2.2-3.8-4.4c-0.1-9.9,0.6-34.7,10.3-52.9
	c6.9-12.9,22.9-17.8,35.8-10.9c10.6,5.6,16,17.6,13.4,29.3c-3.2,13.9-5.7,28-7.4,42.2C753.1,247.7,751.2,249.4,748.9,249.4
	L748.9,249.4z"/>
<path class="st5" d="M658.5,168.5c0.1,0.5,0.2,1.1,0.2,1.6l43,24.8l10.4-6l11.1,14.6L705.9,216c-2.9,2.1-6.8,2-9.6-0.2L652,180.8
	c-5.4,2-11.5-0.8-13.5-6.2c-2-5.4,0.8-11.5,6.2-13.5c5.4-2,11.5,0.8,13.5,6.2C658.3,167.7,658.4,168.1,658.5,168.5L658.5,168.5z"/>
<path class="st3" d="M702.3,192.5c0.3-1.3,1.1-2.4,2.2-3l19.7-11c5.5-4.2,13.3-3.2,17.5,2.3c4.2,5.4,3.2,13.3-2.2,17.5l-15.7,16.3
	c-1.7,1.8-4.6,1.8-6.4,0.1c-0.2-0.2-0.3-0.3-0.4-0.5l-13.9-18C702.4,195.1,702.1,193.8,702.3,192.5z"/>
<polygon class="st5" points="681.5,469.7 669.3,469.7 666.4,422.6 681.5,422.4 "/>
<path class="st6" d="M684.7,481.6l-39.5,0v-0.5c0-8.5,6.9-15.4,15.4-15.4c0,0,0,0,0,0h0l24.1,0L684.7,481.6z"/>
<polygon class="st5" points="798.5,469.7 786.3,469.7 780.4,422.4 798.5,422.4 "/>
<path class="st6" d="M801.7,481.6l-39.5,0v-0.5c0-8.5,6.9-15.4,15.4-15.4c0,0,0,0,0,0h0l24.1,0L801.7,481.6z"/>
<path class="st6" d="M784.6,445.2c-1.9,0-3.6-1.2-4.3-3l-39.1-111.6c-0.5-1.3-1.9-2-3.2-1.5c-0.5,0.2-0.9,0.5-1.2,0.9l-38.1,50.8
	c-0.3,0.4-0.5,0.9-0.6,1.3L686,436.2c-0.4,2-2.2,3.4-4.2,3.5l-14.5,0.7c-1.3,0.1-2.5-0.4-3.4-1.3c-0.9-0.9-1.4-2.1-1.3-3.4l2.5-49.5
	c0.8-16,4.9-31.7,12.1-46c16-31.8,25.2-66.6,27.1-102.2l0-0.6l44.8,7.1l6.7,9.3c3,4.2,6.2,8.2,9.7,12c8.6,9.3,11.1,21.7,11.8,30.5
	c0.8,10.8,2.4,21.5,4.6,32.1l22.2,109.1c0.6,2.4-0.8,4.9-3.2,5.5c-0.2,0.1-0.4,0.1-0.6,0.1l-15.2,2
	C785,445.2,784.8,445.2,784.6,445.2z"/>
<path class="st6" d="M765.4,121.6c-2-5.9-3.4-12-4.3-18.1c-0.3-3.6,0.6-7.4,3.2-9.9c4.9-4.6,13.2-2.4,18.3,2
	c7.4,6.3,11.1,16.1,12.5,25.7s0.8,19.4,1.1,29.2s1.7,19.7,6.7,28.1s14.2,14.8,23.9,14.1c3.9-0.2,7.6-1.8,10.5-4.5
	c2.9-2.7,4.2-6.7,3.7-10.6c5,8.9,2.4,20.9-5,27.9s-18.8,9-28.5,6s-17.7-10.5-22.5-19.4s-6.5-19.4-6.3-29.5
	c0.2-7.8,1.5-15.7,0.2-23.4s-6.1-15.5-13.7-17.3L765.4,121.6z"/>
<path class="st6" d="M731.3,131.7c-1.3,4.3-6.3,7-10.7,6.3s-8.1-4.4-9.5-8.7c-1.2-4.4-0.7-9.1,1.4-13.2c2.4-4.9,6.6-8.7,11.7-10.4
	c5.2-1.7,10.9-0.8,15.3,2.4c0.5-2,2-3.6,3.9-4.1c1.9-0.5,4-0.5,5.9,0.1c5.5,1.6,10.3,5.1,13.5,9.8c3.2,4.8,5.3,10.2,6.1,15.8
	c1.5,8.5,1,17.7-3.8,24.9s-14.5,11.4-22.4,8c-0.5-2.5,0.7-5.1,2-7.2s2.9-4.3,3.5-6.8s-0.5-5.6-2.9-6.4c-2.1-0.7-4.3,0.4-6.5,0.6
	c-3.9,0.2-7.3-2.7-7.5-6.6c-0.1-1.2,0.2-2.5,0.7-3.6L731.3,131.7z"/>
<path class="st4" d="M911.8,482.2h-381c-0.6,0-1-0.4-1-1s0.4-1,1-1h381c0.6,0,1,0.4,1,1S912.4,482.2,911.8,482.2z"/>
</svg>
