<?xml version="1.0" encoding="utf-8"?>
<!-- Generator: Adobe Illustrator 24.0.2, SVG Export Plug-In . SVG Version: 6.00 Build 0)  -->
<svg version="1.1" id="Layer_1" xmlns="http://www.w3.org/2000/svg" xmlns:xlink="http://www.w3.org/1999/xlink" x="0px" y="0px"
	 viewBox="0 0 997 808" style="enable-background:new 0 0 997 808;" xml:space="preserve">
<style type="text/css">
	.st0{opacity:0.1;fill:#6C63FF;enable-background:new    ;}
	.st1{opacity:0.2;}
	.st2{fill:#AACDBE;}
	.st3{opacity:0.1;fill:#AACDBE;enable-background:new    ;}
	.st4{fill:#AACDBE;stroke:#535461;stroke-miterlimit:10;}
	.st5{fill:#DFE5EE;}
	.st6{opacity:5.000000e-02;enable-background:new    ;}
	.st7{fill:url(#SVGID_1_);}
	.st8{fill:#F8BDC5;}
	.st9{fill:#2F2E41;}
	.st10{opacity:0.1;enable-background:new    ;}
	.st11{opacity:5.000000e-02;fill:#AACDBE;enable-background:new    ;}
	.st12{fill:#6E464E;}
</style>
<title>track and field</title>
<path class="st0" d="M260.6,0.9c93,12.7,168.5,101.2,252.3,156.5c18.7,12.3,38.2,23.1,58.9,26.4c68.5,10.6,131.7-63.1,200.6-57.1
	c55.8,4.9,103.1,64,123.2,133.5s17,147.3,5.8,220.3c-17.5,114-56.1,226.2-123.5,300.3c-11.1,12.2-23.5,23.7-37.8,26.5
	c-23.8,4.7-45.8-15.5-66.4-32.1c-92.9-75.2-210.3-94.3-314-51.1c-35.1,14.6-68.7,36-104.6,46.5c-69.2,20.3-147.5-5.3-194.5-76
	s-54.6-186.8-9.9-260c18.7-30.5,44.4-52.1,64.1-81.6c49.3-74,31.1-148.8,25-235.6C133.9,31.9,206.3-6.5,260.6,0.9z"/>
<g class="st1">
	<path class="st2" d="M683.4,545c0,0,27.5,27.5,12,68.3S722,722,722,722l-1.3-0.2c-56.5-10-84.6-74.6-53.2-122.6
		C679.2,581.4,688.8,560.5,683.4,545z"/>
	<path class="st3" d="M683.4,545.5c0,0,27.5,27.5,12,68.3S722,722.5,722,722.5l-1.3-0.2c-56.5-10-84.6-74.6-53.2-122.6
		C679.2,581.9,688.8,560.9,683.4,545.5z"/>
	<path class="st4" d="M683.4,545c0,0,15.5,33.7,0,61.2S680.7,710.9,722,722"/>
	<path class="st2" d="M634.4,656.3c0,0,31.4-5,34.3,23.1s60.4,32,60.4,32l-1.1,0.7c-47.5,31.2-92.9,19.8-86-21.5
		C644.5,675.3,644.2,659.8,634.4,656.3z"/>
	<path class="st4" d="M634.4,656.3c0,0,24.4,5.3,22.4,27.5s36.2,48.7,72.3,27.7"/>
</g>
<g class="st1">
	<path class="st2" d="M357.1,501.7c0,0,22.9,22.9,10,56.8s22.1,90.3,22.1,90.3l-1.1-0.2c-46.9-8.3-70.3-62-44.2-101.9
		C353.6,531.9,361.6,514.5,357.1,501.7z"/>
	<path class="st3" d="M357.1,502.1c0,0,22.9,22.9,10,56.8s22.1,90.3,22.1,90.3l-1.1-0.2c-46.9-8.3-70.3-62-44.2-101.9
		C353.6,532.3,361.6,514.9,357.1,502.1z"/>
	<path class="st4" d="M357.1,501.7c0,0,12.9,28,0,50.9s-2.2,87,32.1,96.2"/>
	<path class="st2" d="M316.4,594.1c0,0,26.1-4.1,28.5,19.2S395,640,395,640l-0.9,0.6c-39.5,25.9-77.2,16.5-71.5-17.9
		C324.7,609.9,324.6,597,316.4,594.1z"/>
	<path class="st4" d="M316.4,594.1c0,0,20.2,4.4,18.6,22.8s30.1,40.5,60,23"/>
</g>
<g class="st1">
	<path class="st2" d="M261.1,357.7c0,0,22.9,22.9,10,56.8s22.1,90.3,22.1,90.3l-1.1-0.2c-46.9-8.3-70.3-62-44.2-101.9
		C257.6,387.9,265.6,370.5,261.1,357.7z"/>
	<path class="st3" d="M261.1,358.1c0,0,22.9,22.9,10,56.8s22.1,90.3,22.1,90.3l-1.1-0.1c-46.9-8.3-70.3-62-44.2-101.9
		C257.6,388.3,265.6,370.9,261.1,358.1z"/>
	<path class="st4" d="M261.1,357.7c0,0,12.9,28,0,50.9s-2.2,87,32.1,96.2"/>
	<path class="st2" d="M220.4,450.1c0,0,26.1-4.1,28.5,19.2S299,496,299,496l-0.9,0.6c-39.5,25.9-77.2,16.5-71.5-17.9
		C228.7,465.9,228.6,453,220.4,450.1z"/>
	<path class="st4" d="M220.4,450.1c0,0,20.2,4.4,18.6,22.8s30.1,40.5,60,23"/>
</g>
<polygon class="st5" points="14.8,592.4 14.8,578.8 294,500.4 344,494.7 344,507.2 65.8,607.1 "/>
<polygon class="st6" points="14.8,592.4 14.8,578.8 294,500.4 344,494.7 344,507.2 65.8,607.1 "/>
<polygon class="st5" points="14.8,578.8 294,486.8 342.9,494.7 65.8,593.5 "/>
<rect x="57.9" y="371" class="st5" width="18.2" height="211.2"/>
<rect x="275.9" y="322.2" class="st5" width="18.2" height="185.1"/>
<polygon class="st5" points="339.5,264.3 339.5,321 112.7,371.7 85.8,377.7 19.3,392.6 0,386.9 0,321 102.9,301.4 128.5,296.5 
	315.6,260.9 "/>
<polygon class="st6" points="339.5,264.3 339.5,321 112.7,371.7 85.8,377.7 19.3,392.6 0,386.9 0,321 102.9,301.4 128.5,296.5 
	315.6,260.9 "/>
<polygon class="st6" points="76.1,371 76.1,382.1 57.9,386.2 57.9,371 "/>
<polygon class="st6" points="294,322.2 294,333.5 275.9,337.5 275.9,322.2 "/>
<polygon class="st5" points="339.5,264.3 339.5,321 247.4,341.6 220.6,347.6 112.7,371.7 85.8,377.7 19.3,392.6 20.4,327.9 
	112.9,309.4 138.8,304.3 138.8,304.3 244.5,283.2 270.3,278 "/>
<polygon class="st2" points="138.8,304.3 112.7,371.7 85.8,377.7 112.9,309.4 102.9,301.4 128.5,296.5 138.8,304.3 "/>
<polygon class="st2" points="271.6,279 247.4,341.6 220.6,347.6 245.7,284.2 244.5,283.2 235.7,276.2 261.4,271.3 270.3,278 
	271.6,279 "/>
<polygon class="st6" points="61.9,578.5 80,574.2 80,578.5 61.9,582.7 "/>
<polygon class="st6" points="278.7,503.5 296.9,499.3 296.9,503.5 278.7,507.8 "/>
<linearGradient id="SVGID_1_" gradientUnits="userSpaceOnUse" x1="570.5386" y1="353.8725" x2="570.5386" y2="744.7802" gradientTransform="matrix(1 0 0 -1 -101.5 761.8898)">
	<stop  offset="0" style="stop-color:#808080;stop-opacity:0.25"/>
	<stop  offset="0.54" style="stop-color:#808080;stop-opacity:0.12"/>
	<stop  offset="1" style="stop-color:#808080;stop-opacity:0.1"/>
</linearGradient>
<path class="st7" d="M659.7,348.5c-29,15.3-58.9-2-58.9-2c-0.5,0.9-1,1.7-1.6,2.5c-0.4-0.3-0.8-0.6-1.1-0.9
	C585.6,338,571.9,314,571.9,314L545,263.7c-3.3-6-5.8-12.5-7.4-19.2c-4.4-19.2-18.5-20-18.5-20h-16.5c-8,0-19.6,1.7-31,4
	c0.3-0.3,0.5-0.7,0.6-1.1l-0.5,0.1l6.1-6c0,0,17.6-7.1,19.6-22.4l9.3-9.1c0,0,0.3-0.8,0.7-2.2l3.1-3.9
	c13.5-16.9,14.4-17.1,14.4-17.1l40.8-24.1c0,0,14.7-2.1,8.5-43.1s-2-46-2-46s11.1-41-10.2-35.9s-11.7,40.2-11.7,40.2l1.5,7.8
	c1.9,9.7,1.8,19.7-0.3,29.3c-2.2,10.4-4.7,23.4-4.1,26.4c1.1,5.4-11.2,12.2-11.2,12.2l-7,4.1c-7.4,4.3-16,5.8-24.4,4.2l-0.4-0.6
	l-4.2-3.1c-0.1,0.4-0.2,0.9-0.3,1.3l-1.7-1.3v0.1c0-0.4,0-0.7,0.1-1.1c0.5-3.8,1.4-7.6,2.7-11.3c0.1-0.3,0.3-0.7,0.4-1
	c16.1-1,28.7-14.3,28.9-30.5c0-3.2-0.5-6.4-1.5-9.4c0.8,0.1,1.6,0.1,2.4,0c3.7-0.6,7.7-2.5,9.7-5.8c2.1-3.7,1.8-8.3-0.8-11.7
	c-0.5-0.6-1-1.2-1.6-1.7c-3.5-4-9.5-5-14.2-7.7c-4.5-2.5-7.9-6.6-12.1-9.6c-7.9-5.7-18-7.4-27.6-9c-4.1-0.7-8.3-1.3-12.5-0.8
	c-5.3,0.7-10.1,3.3-14.2,6.6c-1.5,1-2.7,2.4-3.6,3.9c-1.5,3-0.9,6.5-1.1,9.8c-0.7,8.1-7,14.7-14,18.9c-4.3,2.6-9,4.7-12.6,8.3
	s-5.7,9.1-3.5,13.6c1.2,2.4,3.5,4.3,3.6,7c-0.1,1.2-0.4,2.3-1,3.3c-2.4,5-5.6,9.6-9.6,13.5c-14.6-3.5-30.4,4.2-30.4,4.2l-47.5,2
	c0,0-13.4-6.1-31,31.5S283.4,201,283.4,201s-32,28.5-11.4,35.6s32-27.5,32-27.5l11.4-21.3c0,0,25.8-24.4,27.9-29.5
	s14.5-5.1,14.5-5.1l50.4,2c0.1,0.4,0.1,0.8,0.1,1.2c0.1,5.6-5.2,10-10.5,12.1c-3.4,1.3-7.2,2.4-9.3,5.3s-1.6,7.2,0.5,10.2
	c0.6,0.9,1.4,1.7,2.2,2.4c2.2,2.2,4.8,3.9,7.7,5c2.4,1,4.9,1.7,7.5,2.1c-1,4.3-2.5,8.5-4.3,12.6l2,0.9l-0.7,1.8
	c-2.8,7.5-8.6,22.3-13.8,31.2c0,0-9.3,7.9-16.5,15c-5.5,5.4-18.8,57.6,20.1,58.5l8.9,6.5h0.2c7.9,11.1,33.9,29.4,33.9,29.4
	l-46.1,2.7c-2.3,0.1-4.6,0.4-6.9,0.8c-0.8,0.1-1.5,0.3-2.3,0.5c-8.1,1.8-17.1,1.1-21.9,0.6c-3.2-6-18-3.6-18-3.6s-2.1,30.5,1,47.8
	s14.5,6.1,14.5,6.1c-2.1-15.3,15-26.5,15-26.5l0,0c2.2-1.1,4.7-2.4,7.8-4c9.6-5.1,55.2,2.7,69.2,5.3c3.1,0.6,6.3,0.8,9.4,0.8
	c40.4-0.7,29.9-20.4,29.9-20.4l-8.1-16c-1.3-2.7-2.5-5.4-3.6-8.2c-7.2-19-18.3-29.5-26.9-35.1c0.5-0.6,0.9-1.2,1.4-1.8
	c0,0-0.7-0.2-1.7-0.5c7.2-3.7,12-6.6,12-6.6s47.5-28.5,45.5-21.4s10.3,34.6,33.1,53.9c0.7,0.6,1.3,1.1,1.9,1.7l0.6,0.6l1.3,1.2
	l0.7,0.7l1.2,1.2l0.7,0.7l1.3,1.3l0.5,0.5c0.6,0.6,1.1,1.3,1.7,1.9l0.4,0.4c0.4,0.5,0.9,1,1.3,1.5l0.6,0.7l1,1.3l0.6,0.8l1,1.3
	l0.5,0.7l1.2,1.6l0.3,0.4c0.5,0.7,0.9,1.3,1.4,2l0.3,0.5l1,1.5l0.4,0.6l0.9,1.4l0.4,0.6l0.9,1.5l0.3,0.4c0.8,1.3,1.6,2.7,2.3,4
	l0.1,0.2l1,1.7l0.2,0.3l0.9,1.7l0.1,0.1c2.6,4.9,4.9,9.9,6.9,15.1c-1.2,0.3-2.3,0.5-3.5,0.6c-6.2,27.5,10.3,27.5,10.3,27.5
	s61-9.1,83.7-32.5S659.7,348.5,659.7,348.5z"/>
<path class="st8" d="M438.5,296.5c0,0,25.1,6.5,37.7,40.2c1,2.7,2.2,5.4,3.5,8l7.9,15.8c0,0,10.2,19.4-28.9,20
	c-3.1,0-6.1-0.2-9.1-0.8c-13.6-2.5-57.7-10.3-67-5.2c-5.2,2.9-10.5,5.6-16,8l-11-12l4-16c0,0,13.2,2.5,24.6-0.1
	c2.9-0.7,5.8-1.1,8.8-1.3l44.6-2.6c0,0-35-25-35-34S438.5,296.5,438.5,296.5z"/>
<path class="st6" d="M363.5,357.5c0,0-11,17.9,11.5,21c0,0-16.5,11-14.5,26c0,0-11,11-14-6s-1-47-1-47S363.5,348.5,363.5,357.5z"/>
<path class="st6" d="M438.5,296.5c0,0,25.1,6.5,37.7,40.2c1,2.7,2.2,5.4,3.5,8l7.9,15.8c0,0,10.2,19.4-28.9,20
	c-3.1,0-6.1-0.2-9.1-0.8c-13.6-2.5-57.7-10.3-67-5.2c-5.2,2.9-10.5,5.6-16,8l-11-12l4-16c0,0,13.2,2.5,24.6-0.1
	c2.9-0.7,5.8-1.1,8.8-1.3l44.6-2.6c0,0-35-25-35-34S438.5,296.5,438.5,296.5z"/>
<path class="st6" d="M360.5,372.5l4-16c0,0,13.2,2.5,24.6-0.1c2.9-0.7,5.8-1.1,8.8-1.3l44.6-2.7c0,0-35-25-35-34s36-20,36-20
	l0.3,0.1c-1.7-0.8-3.5-1.5-5.3-2.1c0,0-36,11-36,20s35,34,35,34l-44.6,2.7c-3,0.2-5.9,0.6-8.8,1.3c-11.4,2.5-24.6,0.1-24.6,0.1
	l-4,16l11,12c0,0,0.7-0.3,2.3-1L360.5,372.5z"/>
<path class="st9" d="M363.5,357.5c0,0-11,17.9,11.5,21c0,0-16.5,11-14.5,26c0,0-11,11-14-6s-1-47-1-47S363.5,348.5,363.5,357.5z"/>
<polygon class="st5" points="333.8,647.4 333.8,633.8 613,555.4 663,549.7 663,562.2 384.9,662.1 "/>
<polygon class="st6" points="333.8,647.4 333.8,633.8 613,555.4 663,549.7 663,562.2 384.9,662.1 "/>
<polygon class="st5" points="333.8,633.8 613,541.8 661.9,549.7 384.9,648.5 "/>
<rect x="376.9" y="426" class="st5" width="18.2" height="211.2"/>
<rect x="594.9" y="377.2" class="st5" width="18.2" height="185.1"/>
<polygon class="st5" points="658.5,319.3 658.5,376 431.7,426.7 404.8,432.7 338.3,447.6 319,441.9 319,376 421.9,356.4 
	447.5,351.5 634.6,315.9 "/>
<polygon class="st6" points="658.5,319.3 658.5,376 431.7,426.7 404.8,432.7 338.3,447.6 319,441.9 319,376 421.9,356.4 
	447.5,351.5 634.6,315.9 "/>
<polygon class="st6" points="395.1,426 395.1,437.1 376.9,441.2 376.9,426 "/>
<polygon class="st6" points="613,377.2 613,388.5 594.9,392.5 594.9,377.2 "/>
<polygon class="st5" points="658.5,319.3 658.5,376 566.4,396.6 539.6,402.6 431.7,426.7 404.8,432.7 338.3,447.6 339.4,382.9 
	431.9,364.4 457.8,359.3 457.8,359.3 563.5,338.2 589.3,333 "/>
<polygon class="st2" points="457.8,359.3 431.7,426.7 404.8,432.7 431.9,364.4 421.9,356.4 447.5,351.5 457.8,359.3 "/>
<polygon class="st2" points="590.6,334 566.4,396.6 539.6,402.6 564.7,339.2 563.5,338.2 554.7,331.2 580.3,326.3 589.3,333 
	590.6,334 "/>
<polygon class="st6" points="380.9,633.5 399,629.2 399,633.5 380.9,637.7 "/>
<polygon class="st6" points="597.7,558.5 615.9,554.3 615.9,558.5 597.7,562.8 "/>
<path class="st8" d="M562.6,146.9l-39.5,23.8c0,0-0.9,0.3-14,16.9l-4.7,6c-9.9,12.8-30.5,17-30.5,17l-13.1-20.1l-2.8-24.4l2.9-9.9
	l2.3-7.8l20.1,2.9l8.1,4.4l10-10c0.8,0.2,1.6,0.4,2.4,0.6c8.1,1.6,16.5,0.2,23.6-4.1l6.7-4c0,0,11.9-6.7,10.8-12
	c-0.6-3,1.8-15.7,3.9-26c2-9.5,2.1-19.3,0.3-28.9l-1.4-7.6c0,0-9.3-34.5,11.3-39.5s9.8,35.3,9.8,35.3s-3.9,4.9,2,45.2
	S562.6,146.9,562.6,146.9z"/>
<path class="st8" d="M497.5,141.5c-1.1,10.6,4,12,4,12l3,12v13l-9,15h-22l-19-9v-42l-3-10c1.7-0.1,3.3-0.3,5-0.6
	c9.7-1.9,15.1-7.3,18.2-13.1c4.8-9.1,3.8-19.3,3.8-19.3s40-11,26,20c-1.9,4.1-3.3,7.8-4.3,11C498.9,134.1,498,137.8,497.5,141.5z"/>
<path class="st8" d="M472.1,229.3c-0.1,0.4-0.3,0.9-0.6,1.2c-0.5,0.6-1,1.3-1.3,2c-4.7,8.8-13.7,40-13.7,40l-49-18l-0.7-0.2
	l-19.3-4.8c5.5-3.9,14.6-27.4,18.3-37.4c1-2.8,1.7-4.6,1.7-4.6l52,5C459.5,212.5,473,224.3,472.1,229.3z"/>
<path class="st8" d="M451.5,129.5c0,0-15,6-30,0c-15-6-33,3-33,3l-46,2c0,0-13-6-30,31s-23,39-23,39s-31,28-11,35s31-27,31-27l11-21
	c0,0,25-24,27-29s14-5,14-5l50,2l-0.3,14.6l15.3,13.4l14-12l11-22V129.5z"/>
<path class="st10" d="M504.5,119.5c-1.9,4.1-3.3,7.8-4.3,11c-0.5,0-1.1,0-1.7,0c-9.3,0-18.1-4.3-23.8-11.8
	c4.8-9.1,3.8-19.2,3.8-19.2S518.5,88.5,504.5,119.5z"/>
<circle class="st8" cx="498.5" cy="99.5" r="30"/>
<path class="st10" d="M472.1,229.3c-0.1,0.4-0.3,0.9-0.6,1.2c-0.5,0.6-1,1.3-1.3,2c-17.8-0.8-56.7-17.1-64.4-20.4
	c1-2.8,1.7-4.6,1.7-4.6l52,5C459.5,212.5,473,224.3,472.1,229.3z"/>
<path class="st10" d="M509.2,187.5l-4.7,6c-9.9,12.8-30.5,17-30.5,17l-13.1-20.1l-2.8-24.4L459,142c2.8,13,10.6,40.1,22.5,42.5
	c19.9,4,18.5-24.5,17.5-36.5c-0.1-1.8,0-3.7,0.5-5.5l4,3l0.4,0.6C513.4,160.9,511.3,178.5,509.2,187.5z"/>
<path class="st9" d="M456.5,127.5h-10c0,0,10,64-37,46c0,0,4,15-5,36c0,0,48,21,67,21l6-6c0,0,17-7,19-22l9-9c0,0,10-27-4-48l-4-3
	c-0.5,1.8-0.7,3.7-0.5,5.5c1,12,2.4,40.5-17.5,36.5C454.5,179.5,456.5,127.5,456.5,127.5z"/>
<path class="st2" d="M388.5,309.5l16,12c0,0,26,8,47-21c0,0-13-3-11-10S388.5,309.5,388.5,309.5z"/>
<path class="st11" d="M388.3,309.5l16,12c0,0,26,8,47-21c0,0-13-3-11-10S388.3,309.5,388.3,309.5z"/>
<path class="st10" d="M472.1,230.3c-0.1,0.4-0.3,0.9-0.6,1.2c-4,4-15,42-15,42l-49-18l-0.7-0.2c3.8-2.4,7.8-4.4,12-6.1
	c3.4-1.3,6.8-2.7,9.8-4.1c2.4-1,4.7-2.3,6.9-3.7C439.7,238.5,455.8,233.7,472.1,230.3z"/>
<path class="st8" d="M585.5,372.5l-15,4c0,0-0.3-1-1-2.7c-3.2-8.1-13.9-32.6-32-48.3c-22-19-34-46-32-53s-44,21-44,21
	s-33.3,20.8-55.4,20.8c-3.3,0.1-6.6-0.5-9.6-1.8c-8.5-3.8-11.9-10.5-13.1-17c-1.4-8.3,0.8-16.7,6-23.3c7.6-9.9,17.8-17.4,29.4-21.9
	c3.4-1.3,6.8-2.7,9.8-4.1c2.4-1,4.7-2.3,6.9-3.7c7-5,47-15,66-15h16c0,0,13.6,0.8,17.9,19.7c1.5,6.6,3.9,12.9,7.1,18.8l26,49.5
	c0,0,13.3,23.6,25.3,33.6c3.4,2.9,6.8,4.6,9.7,4.4C616.5,352.5,585.5,372.5,585.5,372.5z"/>
<path class="st10" d="M538.7,84.5c2-3.7,1.7-8.2-0.8-11.5c-3.4-4.4-9.4-5.4-14.2-8.1c-4.3-2.5-7.6-6.5-11.7-9.4
	c-7.6-5.6-17.4-7.3-26.7-8.8c-4-0.7-8.1-1.3-12.1-0.8c-5.1,0.7-9.8,3.3-13.8,6.5c-1.4,1-2.6,2.4-3.5,3.9c-1.5,2.9-0.8,6.4-1.1,9.7
	c-0.6,7.9-6.8,14.4-13.5,18.6c-4.2,2.6-8.7,4.6-12.2,8.1s-5.5,8.9-3.4,13.3c1.2,2.3,3.4,4.3,3.4,6.9c-0.1,1.2-0.4,2.3-0.9,3.3
	c-2.4,5-5.6,9.6-9.5,13.6c-3.5,3.5-7.8,6.7-9.6,11.3c-1.8,4.5-1,9.6,0.6,14.1c0.8,2.2,1.7,4.3,1.8,6.6c0.1,5.6-5,9.8-10.1,11.9
	c-3.3,1.3-7,2.3-9,5.2s-1.5,7.1,0.5,10s5.2,4.9,8.5,6.2c6.1,2.6,12.9,3.1,19.4,1.6c6.5-1.6,12-5.9,15.2-11.8c3-5.8,3.2-13,7.4-18.1
	c7.3-8.9,22.8-6.7,30.4-15.3c6.1-6.9,4.5-17.5,4-26.7c-0.3-5.2-0.1-10.3,0.6-15.4c0.5-3.6,1.4-7.6,4.3-9.9c2.3-1.9,5.4-2.3,8.4-2.6
	c6.1-0.8,13.2-2.3,16-7.8c1.2-2.3,1.5-5.2,3.6-6.7c2.9-2.1,6.9,0,9.5,2.5c2.8,2.8,5.1,6.2,9.3,5.5C533,89.7,536.8,87.8,538.7,84.5z"
	/>
<path class="st12" d="M537.6,83.4c2-3.7,1.7-8.2-0.8-11.5c-3.4-4.4-9.4-5.4-14.2-8.1c-4.3-2.5-7.6-6.5-11.7-9.4
	c-7.6-5.6-17.4-7.3-26.7-8.8c-4-0.7-8.1-1.3-12.1-0.8c-5.1,0.7-9.8,3.3-13.8,6.5c-1.4,1-2.6,2.4-3.5,3.9c-1.5,2.9-0.8,6.4-1.1,9.7
	c-0.6,7.9-6.8,14.4-13.5,18.6c-4.2,2.6-8.7,4.6-12.2,8.1s-5.5,8.9-3.4,13.3c1.2,2.3,3.4,4.3,3.4,6.9c-0.1,1.2-0.4,2.3-0.9,3.3
	c-2.4,5-5.6,9.6-9.5,13.6c-3.5,3.5-7.8,6.7-9.6,11.3c-1.8,4.5-1,9.6,0.6,14.1c0.8,2.2,1.7,4.3,1.8,6.6c0.1,5.6-5,9.8-10.1,11.9
	c-3.3,1.3-7,2.3-9,5.2s-1.5,7.1,0.5,10s5.2,4.9,8.5,6.2c6.1,2.6,12.9,3.1,19.4,1.6c6.5-1.6,12-5.9,15.2-11.8c3-5.8,3.2-13,7.4-18.1
	c7.3-8.9,22.8-6.7,30.4-15.3c6.1-6.9,4.5-17.5,4-26.7c-0.3-5.2-0.1-10.3,0.6-15.4c0.5-3.6,1.4-7.6,4.3-9.9c2.3-1.9,5.4-2.3,8.4-2.6
	c6.1-0.8,13.2-2.3,16-7.8c1.2-2.3,1.5-5.2,3.6-6.7c2.9-2.1,6.9,0,9.5,2.5c2.8,2.8,5.1,6.2,9.3,5.5C531.9,88.6,535.7,86.7,537.6,83.4
	z"/>
<path class="st10" d="M434,202c0,0,11,9,25,8"/>
<path class="st6" d="M605.9,353.7c-5.7,5.6-18.4,13.8-18.4,13.8l-15,4c0,0-11-32-33-51s-34-46-32-53s-44,21-44,21
	s-33.3,20.8-55.4,20.8c-3.3,0.1-6.6-0.5-9.6-1.8c-8.5-3.8-11.9-10.5-13.1-17c-0.8-4.4-0.5-9,0.8-13.3c-2.9,5.6-3.9,12.1-2.8,18.3
	c1.1,6.5,4.6,13.2,13.1,17c3,1.3,6.3,1.9,9.6,1.8c22,0,55.4-20.8,55.4-20.8s46-28,44-21s10,34,32,53s33,51,33,51l15-4
	C585.5,372.5,611.4,355.8,605.9,353.7z"/>
<path class="st10" d="M429.5,246.5l-1.7,0.8c-12.4,5.7-22.6,15.4-28.9,27.5c-13.4,26.1,4.3,37.8,7.2,39.5c-3.3,0.1-6.6-0.5-9.6-1.8
	c-8.5-3.8-11.9-10.5-13.1-17c-1.4-8.3,0.8-16.7,6-23.3c7.6-9.9,17.8-17.4,29.4-21.9c3.4-1.3,6.8-2.7,9.8-4.1L429.5,246.5z"/>
<path class="st2" d="M427.5,246.5c0,0-21-7.5-35-3.7c0,0-9,7.7-16,14.7c-5.7,5.7-20,64,28,57c0,0-22.2-11.4-7.6-39.8
	c6.3-12.1,16.5-21.8,28.9-27.5L427.5,246.5z"/>
<path class="st10" d="M585.5,372.5l-15,4c0,0-0.3-1-1-2.7c3.5-0.9,8-3,8-7.3c0,0,11.5-10.7,16.3-17.4c3.4,2.9,6.8,4.6,9.7,4.4
	C616.5,352.5,585.5,372.5,585.5,372.5z"/>
<path class="st9" d="M578.5,367.5c0,0,15-14,18-20c0,0,29,17,57,2c0,0,26-2,4,21s-81,32-81,32s-16,0-10-27
	C566.5,375.5,578.5,374.5,578.5,367.5z"/>
<polygon class="st5" points="667.8,717.4 667.8,703.8 947,625.4 997,619.7 997,632.2 718.8,732.1 "/>
<polygon class="st6" points="667.8,717.4 667.8,703.8 947,625.4 997,619.7 997,632.2 718.8,732.1 "/>
<polygon class="st5" points="667.8,703.8 947,611.8 995.9,619.7 718.8,718.5 "/>
<rect x="710.9" y="496" class="st5" width="18.2" height="211.2"/>
<rect x="928.9" y="447.2" class="st5" width="18.2" height="185.1"/>
<polygon class="st5" points="992.5,389.3 992.5,446 765.7,496.7 738.8,502.7 672.3,517.6 653,511.9 653,446 755.9,426.4 
	781.5,421.5 968.6,385.9 "/>
<polygon class="st6" points="992.5,389.3 992.5,446 765.7,496.7 738.8,502.7 672.3,517.6 653,511.9 653,446 755.9,426.4 
	781.5,421.5 968.6,385.9 "/>
<polygon class="st6" points="729.1,496 729.1,507.1 710.9,511.2 710.9,496 "/>
<polygon class="st6" points="947,447.2 947,458.5 928.9,462.5 928.9,447.2 "/>
<polygon class="st5" points="992.5,389.3 992.5,446 900.4,466.6 873.6,472.6 765.7,496.7 738.8,502.7 672.3,517.6 673.4,452.9 
	765.9,434.4 791.8,429.3 791.8,429.3 897.5,408.2 923.3,403 "/>
<polygon class="st2" points="791.8,429.3 765.7,496.7 738.8,502.7 765.9,434.4 755.9,426.4 781.5,421.5 791.8,429.3 "/>
<polygon class="st2" points="924.6,404 900.4,466.6 873.6,472.6 898.7,409.2 897.5,408.2 888.7,401.2 914.3,396.3 923.3,403 
	924.6,404 "/>
<polygon class="st6" points="714.9,703.5 733,699.2 733,703.5 714.9,707.7 "/>
<polygon class="st6" points="931.7,628.5 949.9,624.3 949.9,628.5 931.7,632.8 "/>
</svg>
