<?xml version="1.0" encoding="utf-8"?>
<!-- Generator: Adobe Illustrator 24.0.2, SVG Export Plug-In . SVG Version: 6.00 Build 0)  -->
<svg version="1.1" id="Layer_1" xmlns="http://www.w3.org/2000/svg" xmlns:xlink="http://www.w3.org/1999/xlink" x="0px" y="0px"
	 viewBox="0 0 749 457.3" style="enable-background:new 0 0 749 457.3;" xml:space="preserve">
<style type="text/css">
	.st0{fill:#F2F2F2;}
	.st1{fill:#FFFFFF;}
	.st2{fill:#CCCCCC;}
	.st3{fill:#AACDBE;}
	.st4{fill:#E6E6E6;}
	.st5{fill:#3F3D56;}
</style>
<g id="Group_201" transform="translate(-382.003 -195.455)">
	<g id="Group_200" transform="translate(382.003 195.455)">
		<path id="Path_3120-351" class="st0" d="M384.2,369.8l-261.8,67.4c-18.5,4.7-37.3-6.4-42.1-24.9L1.1,104.8
			C-3.6,86.3,7.5,67.5,26,62.7L269.6,0l62.3,27.9l77.2,299.8C413.8,346.2,402.7,365,384.2,369.8z"/>
		<path id="Path_3121-352" class="st1" d="M28.4,72.4c-13.2,3.4-21.1,16.8-17.7,30l79.2,307.5c3.4,13.2,16.8,21.1,30,17.7
			l261.8-67.4c13.2-3.4,21.1-16.8,17.7-30L323.5,35l-54.8-24.5L28.4,72.4z"/>
		<path id="Path_3122-353" class="st0" d="M331.2,29.5l-40.5,10.4c-6.2,1.6-12.4-2.1-14-8.3L269,1.7c-0.1-0.4,0.1-0.8,0.5-0.9
			c0.2,0,0.3,0,0.5,0l61.4,27.3c0.4,0.2,0.5,0.6,0.4,1C331.6,29.3,331.4,29.4,331.2,29.5L331.2,29.5z"/>
		<path id="Path_3123-354" class="st2" d="M309.9,292.1l-119.2,30.7c-3.1,0.8-6.2-1.1-7-4.2c-0.8-3.1,1.1-6.2,4.1-7L307,280.9
			c3.1-0.8,6.2,1,7,4.1C314.9,288.1,313.1,291.3,309.9,292.1C310,292.1,309.9,292.1,309.9,292.1z"/>
		<path id="Path_3124-355" class="st2" d="M337.8,305l-142.2,36.6c-3.1,0.8-6.2-1-7-4.1c-0.8-3.1,1-6.2,4.1-7c0,0,0,0,0.1,0
			l142.2-36.6c3.1-0.8,6.2,1.1,7,4.2C342.7,301.1,340.8,304.2,337.8,305L337.8,305z"/>
		<circle id="Ellipse_44" class="st3" cx="142.1" cy="339.4" r="20.4"/>
		<path id="Path_3125-356" class="st1" d="M297.2,238.8l-158.3,40.8c-9.5,2.4-19.2-3.3-21.7-12.8L84,137.9
			c-2.4-9.5,3.3-19.2,12.8-21.7l158.3-40.8c9.5-2.4,19.2,3.3,21.7,12.8L310,217.1C312.5,226.7,306.8,236.4,297.2,238.8z"/>
		<path id="Path_3126-357" class="st4" d="M297.2,238.8l-158.3,40.8c-9.5,2.4-19.2-3.3-21.7-12.8L84,137.9
			c-2.4-9.5,3.3-19.2,12.8-21.7l158.3-40.8c9.5-2.4,19.2,3.3,21.7,12.8L310,217.1C312.5,226.7,306.8,236.4,297.2,238.8z M97.4,118.2
			c-8.4,2.2-13.5,10.7-11.3,19.1l33.2,128.9c2.2,8.4,10.7,13.5,19.1,11.3l158.3-40.8c8.4-2.2,13.5-10.7,11.3-19.1L274.8,88.8
			c-2.2-8.4-10.7-13.5-19.1-11.3L97.4,118.2z"/>
		<path id="Path_411-358" class="st0" d="M247.1,118.8l-79.9,20.6c-1.4,0.4-3-0.4-3.5-1.8c-0.5-1.5,0.3-3,1.8-3.5c0,0,0.1,0,0.1,0
			l81.3-20.9C250.3,114.8,249.5,118.2,247.1,118.8L247.1,118.8z"/>
		<path id="Path_412-359" class="st0" d="M250.8,132.8l-79.9,20.6c-1.4,0.4-3-0.4-3.5-1.8c-0.5-1.5,0.3-3,1.8-3.5c0,0,0.1,0,0.1,0
			l81.3-20.9C253.9,128.8,253.1,132.2,250.8,132.8L250.8,132.8z"/>
		<path id="Path_413-360" class="st3" d="M155.6,165.8l-24.4,6.3c-1.7,0.4-3.3-0.6-3.8-2.2c0,0,0,0,0,0l-7.4-28.8
			c-0.4-1.7,0.6-3.3,2.2-3.8c0,0,0,0,0,0l24.4-6.3c1.7-0.4,3.3,0.6,3.8,2.2l7.4,28.8C158.3,163.7,157.3,165.4,155.6,165.8
			C155.6,165.8,155.6,165.8,155.6,165.8L155.6,165.8z"/>
		<path id="Path_414-361" class="st0" d="M257.9,161.5L136,192.9c-1.4,0.4-3-0.4-3.5-1.8c-0.5-1.5,0.3-3,1.8-3.5c0,0,0.1,0,0.1,0
			l123.4-31.8C261.1,157.5,260.2,160.9,257.9,161.5L257.9,161.5z"/>
		<path id="Path_415-362" class="st0" d="M261.5,175.6L139.6,207c-1.4,0.4-3-0.4-3.5-1.8c-0.5-1.5,0.3-3,1.8-3.5c0,0,0.1,0,0.1,0
			l123.4-31.8C264.7,171.6,263.8,175,261.5,175.6L261.5,175.6z"/>
		<path id="Path_416-363" class="st0" d="M265.1,189.6L143.2,221c-1.4,0.4-3-0.4-3.5-1.8c-0.5-1.5,0.3-3,1.8-3.5c0,0,0.1,0,0.1,0
			L265,183.9C268.3,185.6,267.5,189,265.1,189.6L265.1,189.6z"/>
		<path id="Path_417-364" class="st0" d="M268.7,203.6L146.8,235c-1.4,0.4-3-0.4-3.5-1.8c-0.5-1.5,0.3-3,1.8-3.5c0,0,0.1,0,0.1,0
			l123.4-31.8C271.9,199.6,271.1,203,268.7,203.6z"/>
		<path id="Path_418-365" class="st0" d="M272.3,217.6L150.4,249c-1.4,0.4-3-0.4-3.5-1.8c-0.5-1.5,0.3-3,1.8-3.5c0,0,0.1,0,0.1,0
			l123.4-31.8C275.5,213.6,274.7,217,272.3,217.6z"/>
		<path id="Path_395-366" class="st1" d="M143.6,346.5c-0.4,0.1-0.9,0.1-1.3-0.1l0,0l-5.5-2.4c-1.1-0.5-1.6-1.7-1.1-2.8
			c0.5-1.1,1.7-1.6,2.8-1.1l0,0l3.6,1.5l4.7-11.1c0.5-1.1,1.7-1.6,2.8-1.1l0,0l0,0.1l0-0.1c1.1,0.5,1.6,1.7,1.1,2.8l-5.5,13
			C144.7,345.9,144.2,346.4,143.6,346.5L143.6,346.5z"/>
	</g>
	<g id="Group_199" transform="translate(673.007 225.872) rotate(-8)">
		<g id="Group_198" transform="translate(125.896 0) rotate(19)">
			<path id="Path_3127-367" class="st5" d="M305,386.7l-270.4,0C15.5,386.7,0,371.2,0,352.1L0,34.6C0,15.5,15.5,0,34.6,0l251.5,0
				l53.4,42.6l0,309.5C339.5,371.2,324,386.7,305,386.7z"/>
			<path id="Path_3128-368" class="st1" d="M34.6,10C21,10,10,21,10,34.6l0,317.5c0,13.6,11,24.6,24.6,24.6l270.4,0
				c13.6,0,24.6-11,24.6-24.6l0-304.7L282.6,10L34.6,10z"/>
			<path id="Path_3129-369" class="st3" d="M252.4,102.3l-123.1,0c-3.2,0-5.8-2.6-5.8-5.8c0-3.2,2.6-5.8,5.8-5.8l123.1,0
				c3.2,0,5.8,2.6,5.8,5.8C258.1,99.7,255.6,102.3,252.4,102.3L252.4,102.3z"/>
			<path id="Path_3130-370" class="st3" d="M276.1,121.7l-146.9,0c-3.2,0-5.8-2.6-5.8-5.8c0-3.2,2.6-5.8,5.8-5.8l146.9,0
				c3.2,0,5.8,2.6,5.8,5.8C281.9,119.1,279.3,121.7,276.1,121.7C276.1,121.7,276.1,121.7,276.1,121.7z"/>
			<path id="Path_3131-371" class="st2" d="M252.4,177.9l-123.1,0c-3.2,0-5.8,2.6-5.8,5.8s2.6,5.8,5.8,5.8l123.1,0
				c3.2,0,5.7-2.7,5.7-5.8C258,180.4,255.5,177.9,252.4,177.9z"/>
			<path id="Path_3132-372" class="st2" d="M276.1,197.3l-146.9,0c-3.2,0-5.8,2.5-5.8,5.7c0,3.2,2.5,5.8,5.7,5.8c0.1,0,0.1,0,0.2,0
				l146.8,0c3.2,0,5.8-2.5,5.8-5.7c0-3.2-2.5-5.8-5.7-5.8C276.2,197.3,276.2,197.3,276.1,197.3L276.1,197.3z"/>
			<path id="Path_3133-373" class="st2" d="M252.4,276.5l-123.1,0c-3.2,0-5.8-2.6-5.8-5.8c0-3.2,2.6-5.8,5.8-5.8h123.1
				c3.2,0,5.8,2.6,5.8,5.8C258.1,273.9,255.6,276.5,252.4,276.5L252.4,276.5z"/>
			<path id="Path_3134-374" class="st2" d="M276.1,295.9l-146.9,0c-3.2,0-5.8-2.6-5.8-5.8c0-3.2,2.6-5.8,5.8-5.8l146.9,0
				c3.2,0,5.8,2.6,5.8,5.8S279.3,295.9,276.1,295.9C276.1,295.9,276.1,295.9,276.1,295.9z"/>
			<circle id="Ellipse_44-2" class="st3" cx="78" cy="106.2" r="20.4"/>
			<path id="Path_395-2-375" class="st1" d="M76,114c-0.5,0-0.9-0.1-1.3-0.4l0,0l-4.8-3.7c-0.9-0.7-1.1-2.1-0.4-3
				c0.7-0.9,2-1.1,2.9-0.4l3.1,2.4l7.3-9.6c0.7-0.9,2-1.1,3-0.4c0,0,0,0,0,0l0,0l0,0.1l0-0.1c0.9,0.7,1.1,2,0.4,3l-8.6,11.2
				C77.3,113.7,76.7,114,76,114L76,114z"/>
			<path id="Path_3135-376" class="st3" d="M100.5,193.3c0,11.2-9.1,20.4-20.3,20.4c0,0,0,0,0,0c-0.2,0-0.3,0-0.5,0
				c-11.2-0.3-20.1-9.6-19.8-20.9c0.3-11.2,9.6-20.1,20.9-19.8C91.7,173.3,100.5,182.3,100.5,193.3z"/>
			<circle id="Ellipse_44-3" class="st3" cx="78" cy="280.5" r="20.4"/>
			<path id="Path_3136-377" class="st5" d="M338.5,43.9l-41.8,0c-6.4,0-11.5-5.2-11.5-11.5c0,0,0,0,0,0V1.5c0-0.4,0.3-0.7,0.7-0.7
				c0.2,0,0.3,0.1,0.4,0.2l52.6,41.7c0.3,0.2,0.4,0.7,0.1,1C338.9,43.8,338.7,43.9,338.5,43.9L338.5,43.9z"/>
		</g>
	</g>
	<path id="Path_3140-378" class="st5" d="M878.1,619.4c-2.6,4.3-8.3,5.7-12.6,3l-106.9-65.2c-4.3-2.6-5.7-8.3-3-12.6
		c2.6-4.3,8.3-5.7,12.6-3l0,0L875,606.8C879.4,609.5,880.7,615.1,878.1,619.4L878.1,619.4z"/>
	<path id="Path_3141-379" class="st5" d="M771.2,554.2c-21.1,34.5-66.2,45.5-100.7,24.4s-45.5-66.2-24.4-100.7
		c21.1-34.5,66.2-45.5,100.7-24.4C781.4,474.6,792.3,519.7,771.2,554.2C771.2,554.2,771.2,554.2,771.2,554.2z M661.8,487.5
		c-15.8,25.9-7.6,59.7,18.3,75.5s59.7,7.6,75.5-18.3s7.6-59.7-18.3-75.5c0,0,0,0,0,0C711.4,453.4,677.6,461.6,661.8,487.5z"/>
	<circle id="Ellipse_44-4" class="st3" cx="707.9" cy="515.3" r="57"/>
</g>
</svg>
