<?xml version="1.0" encoding="utf-8"?>
<!-- Generator: Adobe Illustrator 24.0.2, SVG Export Plug-In . SVG Version: 6.00 Build 0)  -->
<svg version="1.1" id="Layer_1" xmlns="http://www.w3.org/2000/svg" xmlns:xlink="http://www.w3.org/1999/xlink" x="0px" y="0px"
	 viewBox="0 0 904.9 742" style="enable-background:new 0 0 904.9 742;" xml:space="preserve">
<style type="text/css">
	.st0{fill:#FFB6B6;}
	.st1{fill:#2F2E41;}
	.st2{fill:#AACDBE;}
	.st3{fill:#3F3D56;}
	.st4{fill:#FFB7B7;}
	.st5{fill:#FFFFFF;}
	.st6{fill:#E4E4E4;}
	.st7{fill:#CACACA;}
</style>
<polygon class="st0" points="686.1,724.8 670.8,724.8 663.5,665.8 686.1,665.8 "/>
<path class="st1" d="M690,739.6l-49.3,0V739c0-10.6,8.6-19.2,19.2-19.2h0l30.1,0L690,739.6z"/>
<polygon class="st0" points="801.7,711.5 787.1,716.2 762.1,662.3 783.6,655.4 "/>
<path class="st1" d="M810,724.5L763,739.6l-0.2-0.6c-3.2-10.1,2.3-20.9,12.4-24.1l0,0l28.7-9.2L810,724.5z"/>
<circle class="st2" cx="809.3" cy="504.3" r="19.1"/>
<path class="st3" d="M834.3,539.1c-0.3,0.2-0.7,0.4-1,0.5L793,464.8c0.3-0.2,0.7-0.4,1-0.6c20.7-11.1,46.5-3.4,57.6,17.3
	C862.8,502.2,855,528,834.3,539.1L834.3,539.1L834.3,539.1z"/>
<path class="st4" d="M797.1,501.1l-5.6-78.2l1.1-26.1l-22,4.9l8.1,102.4c-2.8,5.7-0.4,12.5,5.3,15.3c5.7,2.8,12.5,0.4,15.3-5.3
	C801.4,509.8,800.5,504.6,797.1,501.1z"/>
<path class="st4" d="M697.8,432.2l-1.4-26.2l-14.1-11.5l-1.9,25.2l-51.9,60c-6.2,1-10.5,6.9-9.5,13.1s6.9,10.5,13.1,9.5
	c5.6-0.9,9.6-5.7,9.6-11.3c0-0.2,0-0.3,0-0.5L697.8,432.2z"/>
<path class="st2" d="M700.3,423.8L656,480l-15-16l31-45l19.4-85.3c1-2.2,2.9-3.9,5.3-4.7c2.3-0.8,4.8-0.6,6.9,0.5l0.3,0.1
	L700.3,423.8z"/>
<path class="st2" d="M776.4,477l-14.1-97.8l0-0.1l14.4-56.8l1.4-0.2c8.1-0.9,15.5,4.5,17.2,12.5l1.1,145.3L776.4,477z"/>
<path class="st1" d="M780.8,307h-73.1v-33c0-20.2,16.3-36.6,36.5-36.6c20.2,0,36.6,16.3,36.6,36.5c0,0,0,0,0,0.1V307z"/>
<circle class="st4" cx="743.4" cy="278.1" r="29.9"/>
<circle class="st1" cx="757.9" cy="232.9" r="19.9"/>
<path class="st1" d="M789,279.7h-77.8v-0.4c0-20.2,17.4-36.6,38.9-36.6s38.9,16.4,38.9,36.6L789,279.7z"/>
<path class="st1" d="M689.7,695.3l-28.9-2.1l0-0.4c-12.7-138.2-5.5-229.5,20.2-257.1l7.3-13.6l-4-22.8c-10.6-27.9,7.2-48.4,8.6-49.8
	l5.7-17.2c0.8-2.4,3-4.1,5.5-4.4l78-8l0.1,0.5l-0.1-0.5c3.6-0.4,6.8,2.2,7.1,5.8c0,0.1,0,0.1,0,0.2l0,0.1l0,0.1l-28.4,95.8l2.5,32.4
	l33.6,231.9l-28.9,6.2l-0.1-0.4l-53.3-174.8L689.7,695.3z"/>
<path class="st5" d="M617,557.5H7c-3.6,0-6.5-2.9-6.5-6.5V7c0-3.6,2.9-6.5,6.5-6.5h610c3.6,0,6.5,2.9,6.5,6.5v544
	C623.5,554.6,620.6,557.5,617,557.5z"/>
<path class="st2" d="M208.7,24.4V165h-0.3c-38.8,0-70.3-31.5-70.3-70.3c0-38.8,31.5-70.3,70.3-70.3L208.7,24.4z"/>
<path class="st5" d="M192.8,56.1v77.2h-0.2c-21.3,0-38.6-17.3-38.6-38.6c0-21.3,17.3-38.6,38.6-38.6H192.8z"/>
<polygon class="st3" points="312.5,281 100.1,281 100.1,93.7 138.1,93.7 138.1,95.7 102.1,95.7 102.1,279 312.5,279 "/>
<circle class="st2" cx="341.2" cy="309.1" r="19.1"/>
<ellipse transform="matrix(0.1602 -0.9871 0.9871 0.1602 -51.6035 927.1763)" class="st2" cx="519.1" cy="493.9" rx="19.1" ry="19.1"/>
<circle class="st2" cx="100.8" cy="278.7" r="19.1"/>
<polygon class="st3" points="312.5,280.4 360.3,280.4 360.3,232.7 264.8,232.7 264.8,328.2 312.5,328.2 "/>
<rect x="414.9" y="40.1" class="st1" width="209.1" height="26"/>
<rect x="414.9" y="96.5" class="st1" width="209.1" height="26"/>
<path class="st1" d="M561.6,185.8c0,0.4,0,0.8,0,1.2h-85c0-0.4,0-0.8,0-1.2c0-23.5,19-42.5,42.5-42.5
	C542.6,143.3,561.6,162.4,561.6,185.8L561.6,185.8z"/>
<path class="st6" d="M561.6,488.4c0,0.4,0,0.8,0,1.2h-85c0-0.4,0-0.8,0-1.2c0-23.5,19-42.5,42.5-42.5
	C542.6,445.9,561.6,464.9,561.6,488.4L561.6,488.4z"/>
<rect x="518.1" y="228.4" class="st3" width="2" height="217.4"/>
<path class="st2" d="M273.5,467.9c0,35.8-29,64.9-64.8,65.1V402.8C244.5,403,273.5,432,273.5,467.9z"/>
<path class="st3" d="M618.9,560H6.2c-3.4,0-6.2-2.8-6.2-6.2V6.2C0,2.8,2.8,0,6.2,0h612.7c3.4,0,6.2,2.8,6.2,6.2v547.6
	C625.1,557.2,622.3,560,618.9,560z M6.2,2C3.9,2,2,3.9,2,6.2v547.6c0,2.3,1.9,4.2,4.2,4.2h612.7c2.3,0,4.2-1.9,4.2-4.2V6.2
	c0-2.3-1.9-4.2-4.2-4.2H6.2z"/>
<path class="st3" d="M207.7,166V23.4l1,0c39.4,0.2,71.2,32.2,71,71.6c-0.2,39.2-31.9,70.9-71,71L207.7,166z M209.7,25.4V164
	c38.3-0.7,68.7-32.3,68-70.6C277,56.2,247,26.1,209.7,25.4z"/>
<path class="st3" d="M209.7,534h-1.3c-36.5,0-66.1-29.6-66.1-66.1s29.6-66.1,66.1-66.1c0,0,0,0,0,0h1.3L209.7,534z M207.7,403.8
	c-35.4,0.4-63.8,29.4-63.4,64.8c0.4,34.8,28.5,63,63.4,63.4V403.8z"/>
<path class="st3" d="M519.1,229.4c-23.6,0.1-43-18.7-43.5-42.3l0-1h87.1l0,1C562.1,210.6,542.7,229.5,519.1,229.4z M477.6,188
	c1.2,22.9,20.7,40.5,43.6,39.3c21.2-1.1,38.2-18.1,39.3-39.3H477.6z"/>
<rect x="1" y="372" class="st3" width="623.1" height="2"/>
<rect x="1" y="186" class="st3" width="623.1" height="2"/>
<rect x="415.4" y="1" class="st3" width="2" height="558"/>
<rect x="207.7" y="1" class="st3" width="2" height="558"/>
<circle class="st2" cx="145.9" cy="466.1" r="19.1"/>
<path class="st7" d="M903.9,742h-381c-0.6,0-1-0.4-1-1s0.4-1,1-1h381c0.6,0,1,0.4,1,1S904.4,742,903.9,742z"/>
<path class="st1" d="M574.4,740c5.6-18.1,0.2-38.8-12.7-52.5c-3.6-3.9-7.8-7.2-12.5-9.8c-0.7-0.4-1.6-0.1-2,0.6
	c-0.3,0.6-0.2,1.3,0.2,1.8l2.6,2.8v-2.1c-5,4.6-14,1.1-15-5.5c-0.4-3.5,0.9-6.9,3.4-9.4c2.7-2.6,6.6-3.5,10.2-2.5
	c3.8,0.9,7,3.5,8.7,6.9c1.6,3.5,1.8,7.6,0.4,11.2c-2.7,8-11.5,11.8-19.5,9.9c-8.2-1.9-14-9.6-14.3-17.9c-0.1-8.2,4.9-15.7,12.6-18.6
	c8.6-3.2,17.8,0,25.1,4.9c7.4,5.2,13.4,12,17.6,20c4.3,7.7,6.7,16.4,7.1,25.2c0.2,7.3-1.3,15.5-6.7,20.8c-1.3,1.3-2.8,2.3-4.4,3.1
	l1.5,2.6c19.3-11.2,30.3-32.7,28-55c-0.7-6.6-2.6-12.9-5.5-18.9c-0.8-1.7-3.4-0.2-2.6,1.5c4.9,10,6.5,21.4,4.7,32.4
	c-2.7,15.7-12.3,29.4-26.1,37.3c-1.7,1-0.2,3.4,1.5,2.6c8.1-4,11.6-12.9,12.4-21.4c0.9-9.7-1.6-19.8-5.7-28.5
	c-4.3-9.2-10.8-17.3-18.9-23.4c-8-5.9-18.9-9.7-28.7-6.1c-8.8,3.2-15.1,12.1-14.8,21.5c0.3,9.5,6.8,18.3,16.1,20.7
	c9.3,2.4,19.4-1.7,23.1-10.8c1.8-4.2,1.9-8.9,0.4-13.2c-1.7-4.2-5-7.5-9.2-9.1c-4.2-1.7-8.9-1.4-12.8,0.8c-3.6,2.3-5.9,6-6.6,10.1
	c-0.7,4.1,0.9,8.2,4,10.8c3.1,2.5,7.1,3.4,11,2.6c1.9-0.4,3.6-1.3,5-2.7c0.6-0.6,0.6-1.5,0-2.1l-2.6-2.8l-1.8,2.4
	c15.7,8.6,25.6,26.2,25.9,44c0.1,5.1-0.6,10.1-2.1,14.9C571,741,573.8,741.8,574.4,740z"/>
</svg>
