<?xml version="1.0" encoding="utf-8"?>
<!-- Generator: Adobe Illustrator 24.0.2, SVG Export Plug-In . SVG Version: 6.00 Build 0)  -->
<svg version="1.1" id="Layer_1" xmlns="http://www.w3.org/2000/svg" xmlns:xlink="http://www.w3.org/1999/xlink" x="0px" y="0px"
	 viewBox="0 0 678.6 510.8" style="enable-background:new 0 0 678.6 510.8;" xml:space="preserve">
<style type="text/css">
	.st0{fill:#AACDBE;}
	.st1{fill:#2F2E41;}
	.st2{fill:#2F2E43;}
	.st3{fill:#EC9C9F;}
	.st4{fill:#090814;}
</style>
<path class="st0" d="M353.4,89.5H186.6c-6.4,0-11.6-5.2-11.6-11.6V11.6C175,5.2,180.2,0,186.6,0h166.8c6.4,0,11.6,5.2,11.6,11.6
	v66.3C365,84.3,359.8,89.5,353.4,89.5L353.4,89.5z"/>
<path class="st1" d="M353.4,292.5H186.6c-6.4,0-11.6-5.2-11.6-11.6v-66.3c0-6.4,5.2-11.6,11.6-11.6h166.8c6.4,0,11.6,5.2,11.6,11.6
	v66.3C365,287.3,359.8,292.5,353.4,292.5z"/>
<path class="st1" d="M352.4,189.8h-65.6c-6.7,0-12.2-5.5-12.2-12.2V114c0-6.7,5.5-12.2,12.2-12.2h65.6c6.7,0,12.2,5.5,12.2,12.2
	v63.6C364.7,184.3,359.2,189.8,352.4,189.8z"/>
<path class="st1" d="M252.4,189.8h-65.6c-6.7,0-12.2-5.5-12.2-12.2V114c0-6.7,5.5-12.2,12.2-12.2h65.6c6.7,0,12.2,5.5,12.2,12.2
	v63.6C264.7,184.3,259.2,189.8,252.4,189.8L252.4,189.8z"/>
<path class="st2" d="M678.6,509.3c0,0.8-0.7,1.5-1.5,1.5H1.5c-0.8,0-1.5-0.7-1.5-1.5s0.7-1.5,1.5-1.5h675.6
	C678,507.8,678.6,508.5,678.6,509.3z"/>
<polygon class="st3" points="521.7,454.2 507.9,468.7 493.1,455.1 507,440.6 "/>
<path class="st4" d="M532.7,469l-29.4,30.8c-2.5,2.6-5.6,4.7-9.1,6l-8.2,3.1c-1.7,0.6-3.6,0.3-5-1c-1.6-1.4-1.9-3.7-1-5.6l7.9-14.8
	l8.4-30l0.1,0.1c2.3,1.4,5.8,3.5,6,3.6c4.4,0.2,7.5-0.9,9.3-3.3c3.1-4,1.1-10.5,1.1-10.5l0,0l0,0c0.9-0.8,1.9-1.1,2.9-0.9
	c2.1,0.3,3.6,2.7,3.8,3.1c2-0.1,8,4.6,8.5,5c3,0,5.1,0.7,6.4,2.1c1.1,1.2,1.7,2.9,1.5,5.1C535.8,464.5,534.6,467,532.7,469
	L532.7,469z"/>
<rect x="485.5" y="470.9" class="st3" width="20.2" height="19.9"/>
<path class="st4" d="M502.3,508.9h-42.9c-3.7,0-7.4-0.8-10.7-2.4l-7.9-3.7c-1.6-0.8-2.7-2.4-2.7-4.2c0-2.1,1.4-4,3.5-4.5l16.3-4.5
	l27.9-14.5l0,0.1c0.5,2.6,1.3,6.5,1.4,6.8c2.9,3.2,5.8,4.7,8.7,4.4c5.1-0.5,8.5-6.3,8.6-6.4l0,0l0.1,0c1.2,0.1,2.1,0.6,2.6,1.4
	c1.2,1.7,0.5,4.4,0.3,4.8c1.4,1.3,2,8.9,2.1,9.5c2,2.1,3,4.1,2.9,6c-0.1,1.7-1,3.2-2.8,4.6C507.7,508,505.1,508.9,502.3,508.9z"/>
<polygon class="st4" points="508.1,220.3 436.6,220.4 412.7,369.1 484.3,454.2 508.1,432.9 451.6,369.1 "/>
<polygon class="st4" points="465.8,242.3 508.1,220.3 508.1,475.5 484.3,476.1 "/>
<path class="st3" d="M423.5,280l0.5-23.2l-13.6-0.3l-0.5,23.2c-2.5,2.3-4.2,6-4.3,10.1c-0.2,7.2,4.6,13.2,10.6,13.3
	s11-5.6,11.1-12.9C427.4,286.2,425.9,282.4,423.5,280z"/>
<path class="st4" d="M487.8,53.2c0,0,19.5,0,12.2-18.8C492.7,15.6,479.2,24,479.2,24s-5.7,3-4.5,9.7"/>
<path class="st3" d="M489.7,62.2c0-14.4-11.7-26-26-26s-26,11.7-26,26c0,11.7,7.7,21.5,18.2,24.8l5,33.3l25.7-21.4
	c0,0-5.5-7.1-8.5-15C485.1,79.2,489.7,71.2,489.7,62.2L489.7,62.2z"/>
<path class="st4" d="M476.2,84.2c0,0,3.5-13.3-2.2-19.4c-5.6-6.1-6.4,3.4-6.4,3.4l-4.1-0.9c0,0,0.7-9.2-7.3-10.8l5.1-11
	c0,0-19.6,3.8-20.2,1.9c-4.3-15,36.4-27.8,47.6-4.9C506.3,78.1,476.2,84.2,476.2,84.2L476.2,84.2z"/>
<path class="st0" d="M453.2,107.4L453.2,107.4c-18.9,3.7-33.1,19.4-34.8,38.6l-11.8,131.2h20.6L453.2,107.4z"/>
<polyline class="st0" points="433.7,211.9 430.5,248.9 517.7,223.3 507.1,196.5 526.9,151 486.5,93.1 454.2,95.3 441.7,111.4 "/>
<path class="st3" d="M504.9,247.1l12.2-19.8l-11.6-7.1L493.3,240c-3.4,0.7-6.7,3.1-8.8,6.6c-3.8,6.2-2.7,13.7,2.4,16.9
	s12.3,0.7,16.1-5.5C505.1,254.4,505.7,250.4,504.9,247.1L504.9,247.1z"/>
<path class="st0" d="M479.9,93.8l7-0.3l12,9.1c14.3,2.4,18.4,3.1,22.8,12.5c1.8,4,3.1,8.2,3.7,12.5l10.2,64.5L510,253.7l-17-19.1
	l18.1-48.2l-3-11.5"/>
</svg>
