<?xml version="1.0" encoding="utf-8"?>
<!-- Generator: Adobe Illustrator 24.0.2, SVG Export Plug-In . SVG Version: 6.00 Build 0)  -->
<svg version="1.1" id="Layer_1" xmlns="http://www.w3.org/2000/svg" xmlns:xlink="http://www.w3.org/1999/xlink" x="0px" y="0px"
	 viewBox="0 0 842.7 573" style="enable-background:new 0 0 842.7 573;" xml:space="preserve">
<style type="text/css">
	.st0{fill:#F2F2F2;}
	.st1{fill:#FFFFFF;}
	.st2{fill:#CCCCCC;}
	.st3{fill:#3F3D56;}
	.st4{fill:#AACDBE;}
	.st5{fill:#FFB8B8;}
	.st6{fill:#2F2E41;}
</style>
<path class="st0" d="M756,559.4c-18.9,13.6-43.4,14.3-67.1,12.6c-3.3-0.2-6.6-0.5-9.8-0.8c0,0,0,0-0.1,0c-0.2,0-0.3,0-0.5,0
	c-0.7-0.1-1.3-0.1-2-0.2l0.2,0.3l0.5,0.9c-0.2-0.3-0.4-0.6-0.5-0.9c-0.1-0.1-0.1-0.2-0.2-0.3c-6.1-10.7-12.2-21.7-13.8-33.9
	c-1.6-12.7,2.9-27,14-33.2c1.5-0.8,3-1.5,4.6-1.9c0.7-0.2,1.3-0.4,2-0.5c13-2.9,25.8,5.3,28.7,18.3c1,4.3,0.7,8.8-0.7,13
	c9.4-9.7,7.7-25.4,4.4-38.5c-3.3-13.1-7.2-27.7-0.6-39.5c3.7-6.6,10.2-10.6,17.5-12.3c0.2,0,0.4-0.1,0.7-0.1
	c8.7-1.8,17.7-0.2,25.2,4.4c13.9,8.8,21.1,25.4,23.4,41.7C785.8,514.7,777.5,543.9,756,559.4z"/>
<path class="st1" d="M749.9,517.4c-0.5,5.8-1.9,11.5-4.1,16.8c-2,4.8-4.7,9.2-8.1,13.2c-6.9,8.1-15.7,14.4-25.5,18.4
	c-7.5,3.1-15.3,5.2-23.3,6.2c-3.3-0.2-6.6-0.5-9.8-0.8c0,0,0,0-0.1,0c-0.2,0-0.3,0-0.5,0c-0.7-0.1-1.3-0.1-2-0.2l0.2,0.3l0.5,0.9
	c-0.2-0.3-0.4-0.6-0.5-0.9c-0.1-0.1-0.1-0.2-0.2-0.3c12.1-12.1,17.7-29.3,14.8-46.3c-1.5-8.3-4.9-16.1-9.9-22.8
	c0.7-0.2,1.3-0.4,2-0.5c1.9,2.6,3.6,5.4,5,8.4c5.1,10.4,6.8,22.3,4.7,33.7c-2,10.4-6.8,19.9-14,27.6c0.6,0,1.3-0.1,1.9-0.2
	c11.8-1,23.6-3.5,34.3-8.7c9.2-4.3,17.1-10.9,23.2-19c6.5-9,9.4-19.7,9.8-30.7c0.4-11.8-0.9-23.6-3.7-35c-2.7-11.7-6.9-23-12.4-33.7
	c-0.3-0.5-0.1-1.1,0.4-1.4c0.2-0.1,0.4-0.2,0.7-0.1c0.2,0.1,0.4,0.2,0.5,0.4c0.7,1.3,1.3,2.6,2,4c5.3,11.1,9.2,22.8,11.6,34.9
	C749.9,493.3,751.1,505.5,749.9,517.4z"/>
<path class="st2" d="M35.2,182.1c-0.6,0-1.1-0.1-1.6-0.3c-1.7-0.7-2.9-2.3-2.9-4.2v-47c0-3.3-2.7-6-6-6H15c-8.3,0-15-6.7-15-15V15
	C0,6.7,6.7,0,15,0h339.7c8.3,0,15,6.7,15,15v94.6c0,8.3-6.7,15-15,15H92.5c-1.7,0-3.3,0.7-4.4,1.9l-49.6,54.1
	C37.6,181.6,36.4,182.1,35.2,182.1z M15,2C7.8,2,2,7.8,2,15v94.6c0,7.2,5.8,13,13,13h9.6c4.4,0,8,3.6,8,8v47c0,1.4,1.1,2.5,2.5,2.5
	c0.7,0,1.4-0.3,1.8-0.8l49.6-54.1c1.5-1.7,3.7-2.6,5.9-2.6h262.2c7.2,0,13-5.8,13-13V15c0-7.2-5.8-13-13-13H15z"/>
<circle class="st2" cx="36.8" cy="29.5" r="13.1"/>
<path class="st2" d="M339.4,102.1H30.3c-3.9,0-7-3.1-7-7c0-3.9,3.1-7,7-7c0,0,0,0,0,0h309.1c3.9,0,7,3.1,7,7
	C346.4,99,343.3,102.1,339.4,102.1C339.4,102.1,339.4,102.1,339.4,102.1z"/>
<path class="st2" d="M238.7,72.4H30.3c-3.9,0-7-3.1-7-7c0-3.9,3.1-7,7-7c0,0,0,0,0,0h208.4c3.9,0,7,3.1,7,7
	C245.7,69.2,242.6,72.4,238.7,72.4C238.7,72.4,238.7,72.4,238.7,72.4z"/>
<path class="st2" d="M35.2,515.7c-0.6,0-1.1-0.1-1.6-0.3c-1.7-0.7-2.9-2.3-2.9-4.2v-47c0-3.3-2.7-6-6-6H15c-8.3,0-15-6.7-15-15
	v-94.6c0-8.3,6.7-15,15-15h339.7c8.3,0,15,6.7,15,15v94.6c0,8.3-6.7,15-15,15H92.5c-1.7,0-3.3,0.7-4.4,1.9l-49.6,54.1
	C37.6,515.2,36.4,515.7,35.2,515.7z M15,335.6c-7.2,0-13,5.8-13,13v94.6c0,7.2,5.8,13,13,13h9.6c4.4,0,8,3.6,8,8v47
	c0,1.4,1.1,2.5,2.5,2.5c0.7,0,1.4-0.3,1.8-0.8l49.6-54.1c1.5-1.7,3.7-2.6,5.9-2.6h262.2c7.2,0,13-5.8,13-13v-94.6
	c0-7.2-5.8-13-13-13L15,335.6z"/>
<path class="st3" d="M536.8,342.4c-1.3,0-2.5-0.5-3.3-1.5l-49.6-54.1c-1.1-1.2-2.7-1.9-4.4-1.9H217.3c-8.3,0-15-6.7-15-15v-94.6
	c0-8.3,6.7-15,15-15H557c8.3,0,15,6.7,15,15v94.6c0,8.3-6.7,15-15,15h-9.6c-3.3,0-6,2.7-6,6v47c0,1.9-1.1,3.5-2.9,4.2
	C538,342.3,537.4,342.4,536.8,342.4z M217.3,162.2c-7.2,0-13,5.8-13,13v94.6c0,7.2,5.8,13,13,13h262.2c2.2,0,4.4,0.9,5.9,2.6
	l49.6,54.1c0.9,1,2.5,1.1,3.5,0.2c0.5-0.5,0.8-1.1,0.8-1.8v-47c0-4.4,3.6-8,8-8h9.6c7.2,0,13-5.8,13-13v-94.6c0-7.2-5.8-13-13-13
	L217.3,162.2z"/>
<circle class="st2" cx="36.8" cy="363.1" r="13.1"/>
<path class="st2" d="M339.4,435.7H30.3c-3.9,0-7-3.1-7-7c0-3.9,3.1-7,7-7c0,0,0,0,0,0h309.1c3.9,0,7,3.1,7,7
	S343.3,435.7,339.4,435.7C339.4,435.7,339.4,435.7,339.4,435.7z"/>
<path class="st2" d="M238.7,406H30.3c-3.9,0-7-3.1-7-7c0-3.9,3.1-7,7-7c0,0,0,0,0,0h208.4c3.9,0,7,3.1,7,7
	C245.7,402.8,242.6,405.9,238.7,406C238.7,406,238.7,406,238.7,406z"/>
<circle class="st3" cx="239.1" cy="188.8" r="13.1"/>
<path class="st4" d="M541.7,261.5H232.6c-3.9,0-7-3.1-7-7s3.1-7,7-7c0,0,0,0,0,0h309.1c3.9,0,7,3.1,7,7S545.5,261.5,541.7,261.5
	C541.7,261.5,541.7,261.5,541.7,261.5z"/>
<path class="st4" d="M441,231.7H232.6c-3.9,0-7-3.1-7-7c0-3.9,3.1-7,7-7c0,0,0,0,0,0H441c3.9,0,7,3.1,7,7
	C448,228.6,444.9,231.7,441,231.7C441,231.7,441,231.7,441,231.7z"/>
<path class="st5" d="M541.5,360.4c1.1-5.4,6.5-8.9,11.9-7.8c0.6,0.1,1.1,0.3,1.7,0.5l23.5-27l5,17.9l-23,22.9
	c-2.4,5-8.5,7.1-13.5,4.7C542.8,369.6,540.6,364.9,541.5,360.4L541.5,360.4z"/>
<circle class="st5" cx="670.3" cy="209.3" r="24.6"/>
<polygon class="st5" points="641.4,547.4 629.2,547.4 623.3,500.1 641.4,500.1 "/>
<path class="st6" d="M644.6,559.3l-39.5,0v-0.5c0-8.5,6.9-15.4,15.4-15.4c0,0,0,0,0,0h0l24.1,0L644.6,559.3z"/>
<polygon class="st5" points="678.4,560.4 666.2,560.4 664.5,514.2 678.4,513.1 "/>
<path class="st6" d="M681.6,572.3l-39.5,0v-0.5c0-8.5,6.9-15.4,15.4-15.4c0,0,0,0,0,0h0l24.1,0L681.6,572.3z"/>
<path class="st6" d="M674.9,551.7l-9.5-1.1c-2.2-0.3-3.9-2.1-4-4.4l-1.8-124.3c0-0.8-0.7-1.5-1.5-1.5c-0.6,0-1.2,0.4-1.4,1
	l-13.2,37.4l0.9,70.1c0,2.4-1.8,4.4-4.2,4.6l-12.5,0.5c-2.4,0.1-4.4-1.6-4.7-3.9l-6.5-79.3l0,0l9.9-82.8l74.2,5.4l-20.6,174.5
	c-0.3,2.3-2.2,4-4.5,4C675.3,551.8,675.1,551.8,674.9,551.7z"/>
<path class="st4" d="M626.7,375.2c-1.4-0.7-2.2-2.1-2.4-3.6c0,0,6.7-41.5,9.1-42.3l-5.3-44.4c-1.3-10.9,1.9-21.9,8.8-30.5
	c6.7-8.3,16.4-13.5,27-14.5c0.7-0.1,1.5-0.1,2.2-0.2c12.8-0.7,25.2,4.9,33.1,15.1c8.2,10.2,10.9,23.8,7.2,36.4l-3,10.4v73
	c0,1.4-0.7,2.8-1.9,3.7c-9.3,6.9-19.9,9.3-30.2,9.3C652.1,387.7,633.7,379,626.7,375.2z"/>
<path class="st4" d="M569.1,361.9l-12.9-9.6c-2-1.5-2.4-4.3-0.9-6.3c0.1-0.1,0.2-0.3,0.3-0.4l76.9-82.5c5.1-5.4,13.4-6.3,19.5-2.1
	l0,0c6.8,4.7,8.5,14.1,3.7,20.9c-0.5,0.8-1.1,1.5-1.8,2.1l-79,77.5c-1.4,1.4-3.6,1.7-5.4,0.7C569.4,362.1,569.2,362,569.1,361.9z"/>
<path class="st5" d="M667.8,351c2.1-5.1,8-7.6,13.1-5.4c0.5,0.2,1.1,0.5,1.6,0.8l28.1-22.1l1.5,18.5l-26.9,18.1
	c-3.3,4.5-9.6,5.4-14.1,2.1C667.4,360.3,666,355.3,667.8,351z"/>
<path class="st4" d="M693,359.6c-1.5-0.5-2.7-1.7-3-3.2l-2.8-11.9c-0.4-1.7,0.2-3.5,1.7-4.6l19.1-20.6l-28.1-43.3
	c-4.4-5.4-4.6-13-0.5-18.6c5-6.8,14.5-8.3,21.3-3.3c2.2,1.6,3.9,3.8,5,6.3l26.1,50.8c5.4,10.5,2.1,23.3-7.7,29.8l-26.7,17.8
	c-0.8,0.7-1.9,1.1-3,1.1C693.9,359.8,693.4,359.7,693,359.6z"/>
<path class="st6" d="M688.5,231.3c-2.1,1.3-4.8,0.6-6-1.5c-0.2-0.3-0.4-0.7-0.5-1.1l0-0.1c-0.5-2-0.1-4.2,0-6.3s-0.1-4.4-1.5-5.9
	c-2.7-2.9-7.4-1.3-11.3-2c-4.7-1-7.9-5.4-7.5-10.1c0.1-0.4,0.1-0.9,0.2-1.3c0.8-4-1.7-7.8-5.6-8.7c-0.7-0.1-1.3-0.2-2-0.1
	c-3.9,0.2-8.1,1.4-11.3-1.4c-2.4-2.3-3.2-5.9-2.1-9c1.8-5.3,7-8.1,12.1-9.7c12.9-3.8,26.8-1.6,37.8,6c3.3,2.3,6.3,5.1,7.7,8.9
	s0.8,8.4-2.3,10.9c5,5.2,6.8,12.6,4.8,19.5C699.5,224.3,692.2,229.1,688.5,231.3z"/>
<path class="st3" d="M842.7,572c0,0.6-0.4,1-1,1h-381c-0.6,0-1-0.4-1-1s0.4-1,1-1h381C842.3,571,842.7,571.4,842.7,572z"/>
</svg>
