<?xml version="1.0" encoding="utf-8"?>
<!-- Generator: Adobe Illustrator 24.0.2, SVG Export Plug-In . SVG Version: 6.00 Build 0)  -->
<svg version="1.1" id="Layer_1" xmlns="http://www.w3.org/2000/svg" xmlns:xlink="http://www.w3.org/1999/xlink" x="0px" y="0px"
	 viewBox="0 0 893.9 645.6" style="enable-background:new 0 0 893.9 645.6;" xml:space="preserve">
<style type="text/css">
	.st0{fill:#AACDBE;}
	.st1{fill:#FFFFFF;}
	.st2{fill:#3F3D56;}
	.st3{fill:#503335;}
	.st4{fill:#2F2E41;}
	.st5{fill:#FFB7B7;}
	.st6{fill:#CCCCCC;}
	.st7{fill:#FF6584;}
</style>
<path class="st0" d="M558.1,642.3c8.8-19,17.6-38.3,21.4-58.9s2.2-42.9-8.7-60.8s-32.5-30-53-25.9c-16.9,3.3-30.4,16.6-38.4,31.9
	s-11.1,32.5-14.2,49.4c-1-19.2-2.1-38.8-8.4-56.9s-19-35.1-36.9-42.1s-41.2-1.5-50.7,15.3c-13.3,23.6,4.3,56.8-11,79.2
	c-2.6-22.5-26.1-40.2-48.4-36.6c-22.3,3.6-39,27.9-34.4,50c2.7,13.2,11.7,24.4,22.5,32.5c10.7,8.1,23.2,17.5,35.6,22.8L558.1,642.3z
	"/>
<path class="st1" d="M286.1,555.6c17.7,6.2,35.6,12.5,51.8,22.2c14.5,8.7,27.4,20.4,35.6,35.4c4.5,8,7.1,17,7.8,26.1
	c0.1,1.9,3.1,1.9,3,0c-1-17.1-9.4-32.7-20.9-45.1c-12.6-13.6-29-22.8-45.9-30c-10-4.3-20.3-7.9-30.6-11.5
	C285,552.1,284.2,555,286.1,555.6L286.1,555.6z"/>
<path class="st1" d="M388.3,484.9c10.9,18.2,19.6,37.5,26,57.7c6.4,20.2,10.4,41,12,62.1c0.9,11.8,1,23.7,0.3,35.5
	c-0.1,1.9,2.9,1.9,3,0c1.2-21.3-0.1-42.7-3.8-63.7c-3.8-21-9.9-41.5-18.4-61.1c-4.8-11-10.2-21.7-16.4-32c-0.4-0.7-1.4-0.9-2.1-0.5
	C388.2,483.3,388,484.2,388.3,484.9z"/>
<path class="st1" d="M535.2,502.1c-15.4,34.6-26.3,71.1-32.3,108.5c-1.7,10.5-3,21.1-3.9,31.7c-0.2,1.9,2.8,1.9,3,0
	c3.3-37.3,11.3-74.1,24-109.4c3.6-9.9,7.5-19.7,11.8-29.3C538.5,501.9,536,500.3,535.2,502.1z"/>
<path class="st0" d="M106.1,643C42.8,626.6-1,569,0,503.6c0.1-7.9,1-16,4.3-23.2s9.5-13.4,17.2-15.1c8.4-1.9,17.3,1.9,23.6,7.9
	s10.4,13.7,14.2,21.5c22.8,46.7,40.2,96.9,46.7,148.5L106.1,643z"/>
<path class="st1" d="M17.7,466.9l16,36.4l16,36.4c5.1,11.5,10.1,23,15.4,34.5c5.2,11.3,10.6,22.6,16.3,33.7
	c5.7,11.1,11.8,21.9,18.4,32.5c0.8,1.3,1.7,2.6,2.5,3.9c0.6,0.9,2,0.1,1.4-0.8C97,632.9,90.8,622.1,85,611.1s-11.3-22.3-16.5-33.6
	c-5.3-11.4-10.3-22.8-15.4-34.3C47.8,531.1,42.5,519,37.2,507l-16-36.4l-2-4.5C18.7,465.1,17.3,466,17.7,466.9L17.7,466.9z"/>
<path class="st0" d="M99.4,643.3c-37.3,8.5-75.6-9.5-92.7-43.7c-2.1-4.1-3.8-8.6-4-13.2s1.3-9.5,4.9-12.5c3.9-3.2,9.5-3.7,14.4-2.3
	s9.1,4.3,13.2,7.3c24.5,18.1,47,39.4,64.3,64.5L99.4,643.3z"/>
<path class="st1" d="M6,575.7l18.1,14.6l18.1,14.6c5.7,4.6,11.5,9.2,17.3,13.8c5.8,4.5,11.6,8.9,17.6,13.1c6,4.2,12.1,8.2,18.3,11.9
	c0.8,0.5,1.6,0.9,2.4,1.4c0.5,0.3,1.1-0.5,0.5-0.8c-6.3-3.6-12.5-7.6-18.5-11.7c-6-4.2-11.9-8.5-17.6-13
	c-5.8-4.5-11.5-9.1-17.3-13.7c-6-4.8-12-9.7-18.1-14.5l-18-14.7l-2.3-1.8C6,574.5,5.5,575.3,6,575.7L6,575.7z"/>
<path class="st2" d="M871,645.6H43.7c-0.7,0-1.2-0.5-1.2-1.2s0.5-1.2,1.2-1.2l0,0H871c0.7,0,1.2,0.5,1.2,1.2S871.6,645.6,871,645.6
	L871,645.6z"/>
<path class="st2" d="M849.2,526.3h-56c0,1.4-1.1,2.5-2.5,2.5h-55c-0.8,0.6-1.5,1.3-2.1,2c-1.9,2.2-2.9,5.1-2.9,8v2
	c0,6.9,5.6,12.5,12.5,12.5h106c6.9,0,12.5-5.6,12.5-12.5v-2C861.7,531.9,856.1,526.3,849.2,526.3z"/>
<rect x="790.2" y="552.8" class="st2" width="13" height="92"/>
<path class="st2" d="M840.2,644.4c0,1.4-19.7,0.5-44,0.5s-44,0.9-44-0.5s19.7-12.5,44-12.5S840.2,643,840.2,644.4z"/>
<path class="st3" d="M846.8,529.2l-2.2-13.6c-0.6-3.6-3.9-6-7.5-5.5l-22.5,3.6l-38.5,6.2l-12.5,2h27.2c1.4,0,2.5,1.1,2.5,2.5v2
	c0,1.4-1.1,2.5-2.5,2.5h-69.2c-1,0.5-1.8,1.1-2.4,2c-1.1,1.4-1.5,3.2-1.2,5l0.6,3.9l0.8,4.7l0.8,5.1c0.6,3.6,3.9,6,7.5,5.4l17.9-2.8
	l51.5-8.2l44.4-7.1C844.9,536.1,847.3,532.8,846.8,529.2z"/>
<path class="st3" d="M744.1,530.8c-0.7-0.9-1.5-1.6-2.5-2h-19.1c-1,0.4-1.9,1.1-2.5,2c-0.9,1.1-1.4,2.5-1.4,4V611
	c0,3.6,2.9,6.5,6.6,6.5H739c3.6,0,6.5-2.9,6.5-6.5v-76.2C745.4,533.4,745,532,744.1,530.8z"/>
<path class="st3" d="M785.7,401l-0.1-0.2l-8.6-10.6c-0.5-0.6-1-1.1-1.6-1.4c-0.3-0.2-0.7-0.4-1.1-0.5c-0.5-0.2-1.1-0.4-1.7-0.4
	c-0.4,0-0.8,0-1.2,0l0,0c-1.3,0.1-2.6,0.6-3.6,1.4l-17.6,14.3L727.5,422l-33.8,27.4l-2.5,2H734l2.5-2l8.2-6.6l0.6-0.5l39.5-32l0,0
	c0.8-0.7,1.5-1.5,1.9-2.5c0.3-0.6,0.4-1.3,0.5-2C787.3,404.1,786.8,402.4,785.7,401z"/>
<path class="st4" d="M785.6,400.9c-0.6-2.7-1.8-5.2-3.6-7.3c-1.8-2.1-4.1-3.7-6.6-4.7c-0.4-0.2-0.8-0.3-1.2-0.4
	c-0.9-0.3-1.8-0.5-2.8-0.6l0,0c-4.2-0.5-8.4,0.7-11.8,3.3l-30.5,23.3c-1.3,1.2-2.1,2.8-2.1,4.6c0,1,0.1,2,0.5,3
	c0.1,0.2,0.2,0.4,0.3,0.6c0.2,0.4,0.5,0.8,0.8,1.1l4.9,5.5l11.4,12.7l0.3,0.4l0.7,0.8c2.4,2.7,6.6,2.9,9.3,0.4l0,0l26.3-28.2
	c1.4-1.5,2.4-3.2,3.2-5C785.9,407.3,786.2,404,785.6,400.9z"/>
<circle class="st3" cx="797.2" cy="314.5" r="50.1"/>
<path class="st3" d="M816,522.3l-1.4-8.6l-0.8-5c-0.6-3.6-3.9-6-7.5-5.4l-36.4,5.8l-9.9,1.6l-2,0.3v10.9h32.8c1.4,0,2.5,1.1,2.5,2.5
	v2c0,1.4-1.1,2.5-2.5,2.5H687.1c0,0,0,0,0,0.1l0.6,3.9l1.6,9.8c0.6,3.6,3.9,6,7.5,5.4l17.9-2.8l3.9-0.6l0.8-0.1l26.2-4.2l17.8-2.8
	l28.3-4.5l0.4-0.1l18.6-3C814.1,529.2,816.5,525.9,816,522.3z"/>
<path class="st4" d="M865.4,485.5c0,40.9-4.2,65.3-68.2,58.3c-0.1,0-0.2,0-0.3,0c-11.4-1.1-22.7-3.3-33.7-6.5
	c-5.7-1.7-11.3-3.9-16.6-6.5c-1.3-0.6-2.5-1.3-3.7-2h47.8c1.4,0,2.5-1.1,2.5-2.5v-2c0-1.4-1.1-2.5-2.5-2.5H758v-63.2
	c0-4-3.3-7.3-7.3-7.3H724c0.2-0.7,0.5-1.3,0.7-2c2.5-6.9,5.5-13.7,8.9-20.2c4.7-9.1,10.2-17.6,16.6-25.6c4.4-5.5,9.4-10.6,14.8-15.2
	c10-8.3,21-13.4,32-13.4C837.9,375,865.4,444.7,865.4,485.5z"/>
<path class="st4" d="M798.2,333.1l0.1-1.9c-3.5-0.1-6.6-0.3-8.9-2c-1.3-1-2.1-2.6-2.2-4.2c-0.1-1,0.3-2,1.1-2.7
	c1.5-1.3,4-0.9,5.8-0.1l1.5,0.7l-3-21.7l-1.9,0.3l2.5,18.5c-2.1-0.8-4.5-0.4-6.3,0.9c-1.2,1.1-1.9,2.6-1.7,4.2
	c0.1,2.2,1.2,4.3,3,5.7C791.3,332.9,795.1,333,798.2,333.1z"/>
<rect x="771.5" y="303.1" class="st4" width="10.1" height="1.9"/>
<rect x="803.4" y="303.1" class="st4" width="10.1" height="1.9"/>
<path class="st4" d="M837.2,300.7c-3.9-5.9-10.8-8.4-17.5-9c-7.6-0.7-15,0.8-22.4,2.2c-8.2,1.6-16.8,3-25.1,1.1
	c-7.4-1.7-13.6-6.7-16.8-13.6c-3-6.6-3.7-14.1-1.8-21.1c1.9-7.5,6.7-14.1,12.5-19c11.9-10.1,27.9-14.7,43.4-14.3
	c15.4,0.4,30.2,5.6,42.5,14.9c12.3,9.7,20.9,23.2,24.5,38.4c3.8,15.1,2.5,30.9-3.5,45.3c-3.4,7.8-8.3,14.9-12,22.5
	c-3.5,7.1-6.2,15.4-4,23.3c1.9,7,7.5,13.1,14.6,15c6.6,1.7,13.6-1.1,17.1-7c3.5-5.6,3.6-12.9-1.7-17.4c-5.4-4.7-13.7-4.1-18.4,1.4
	c-0.1,0.2-0.3,0.3-0.4,0.5c-2.2,2.8-3.1,6.3-2.7,9.8c0.3,1.8-2.4,2.5-2.7,0.7c-1.5-8.6,4.3-16.8,13-18.3c6.7-1.1,13.4,2.1,16.6,8.1
	c3.2,6,1.5,13.3-2.6,18.4c-4.3,5.6-11.4,8.2-18.3,6.6c-7.4-1.7-13.4-7.6-16.3-14.5c-3.2-7.7-1.7-16.3,1.4-23.7
	c3.3-8.1,8.3-15.3,12.2-23.1c3.5-7,5.8-14.6,6.7-22.4c1.7-15.7-1.8-31.5-10.1-45c-8.4-13.2-21.3-23-36.3-27.6
	c-14.9-4.8-31-4.4-45.6,1.2c-14.3,5.6-28.1,17.9-27.9,34.3c0.1,7,2.7,14.2,8.1,18.9c6.4,5.6,15.4,6.1,23.5,5.2s16.1-3.3,24.2-3.9
	c7.1-0.5,14.8,0,21.1,3.6c3,1.6,5.5,4,7.3,6.8C840.6,300.8,838.2,302.2,837.2,300.7L837.2,300.7z"/>
<path class="st3" d="M827,415.4l-4-2.8l-7.4-5.1c-3-2.1-7.1-1.3-9.1,1.7l-24.1,34.7L760,476.1l-2,2.9v42.9h0.2c1.6-0.2,3-0.9,4.1-2
	c0.2-0.2,0.4-0.5,0.6-0.8l7-10.1l17.3-24.8l17.9-25.7l1.7-2.5l21.9-31.5c0.1-0.2,0.2-0.3,0.3-0.5s0.2-0.3,0.3-0.5
	C830.5,420.5,829.6,417.2,827,415.4z"/>
<path class="st4" d="M827,401.6c-0.7-0.5-1.4-0.9-2.2-1.2c-7-3.2-15.4-1.1-20,5.2L782,436.5c-1.9,3.1-1,7.1,2.1,9c0,0,0.1,0,0.1,0.1
	l20.7,13l0.3,0.2l1,0.7c3.1,1.9,7.1,0.9,9-2.2l16.1-31.9l0.3-0.5l0,0l1-2C836.4,415.2,834,406.2,827,401.6z"/>
<path class="st3" d="M687.7,528.8v75.3c0,3.6,2.9,6.5,6.5,6.5H708c3.6,0,6.5-2.9,6.6-6.5v-75.3H687.7z"/>
<path class="st2" d="M790.7,519.9H760v-61.2c0-5.2-4.2-9.3-9.3-9.3H636.6c-5.2,0-9.3,4.2-9.3,9.3v62.8c0,5.2,4.2,9.3,9.3,9.3h154.2
	c0.2,0,0.3,0,0.5,0c0.1,0,0.3,0,0.4-0.1c2.1-0.4,3.6-2.3,3.6-4.4v-2C795.2,521.9,793.2,519.9,790.7,519.9z M790.7,528.8H636.6
	c-4,0-7.3-3.3-7.3-7.3v-62.8c0-4,3.3-7.3,7.3-7.3h114.1c4,0,7.3,3.3,7.3,7.3v63.2h32.8c1.4,0,2.5,1.1,2.5,2.5v2
	C793.2,527.7,792.1,528.8,790.7,528.8z"/>
<circle class="st0" cx="693.6" cy="490.1" r="7.7"/>
<circle class="st5" cx="122" cy="307.8" r="53.5"/>
<path class="st4" d="M111.6,509.2H96.8c-3.6,0-6.5,2.9-6.5,6.5v123c0,3.6,2.9,6.5,6.5,6.5h14.8c3.6,0,6.5-2.9,6.5-6.5v-123
	C118.1,512.1,115.2,509.2,111.6,509.2z"/>
<path class="st4" d="M142.8,509.2H128c-3.6,0-6.5,2.9-6.5,6.5v123c0,3.6,2.9,6.5,6.5,6.5h14.8c3.6,0,6.5-2.9,6.5-6.5l0,0v-123
	C149.3,512.1,146.3,509.2,142.8,509.2L142.8,509.2z"/>
<path class="st4" d="M153.4,389.4c-13.7-17.7-39.2-21-56.9-7.3c-9.9,7.7-15.7,19.5-15.7,32V523c0,0.3,0,0.7,0.1,1
	c0.5,3.4,3.4,6,6.9,6h67.1c3.9,0,7-3.1,7-7V414.2C161.9,405.2,159,396.5,153.4,389.4z"/>
<path class="st4" d="M167.2,331.5l-0.1-2c3.7-0.1,7-0.3,9.5-2.1c1.4-1.1,2.3-2.7,2.4-4.5c0.1-1.1-0.3-2.2-1.2-2.9
	c-1.6-1.4-4.3-0.9-6.2-0.1l-1.7,0.8l3.2-23.2l2,0.3l-2.7,19.7c2.6-0.8,5-0.4,6.7,1c1.3,1.1,2,2.8,1.9,4.5c-0.1,2.4-1.3,4.6-3.2,6.1
	C174.6,331.3,170.5,331.4,167.2,331.5z"/>
<rect x="150.9" y="299.4" class="st4" width="10.8" height="2"/>
<path class="st5" d="M106.3,390.9c-1.2-1.3-2.8-2-4.5-2.1l-11.6-0.5l-3.1-0.1c-3.6-0.1-6.6,2.6-6.8,6.2l-1.8,44.3l-3.3,78.6
	c-0.1,3.4,2.4,6.3,5.8,6.7c0.2,0,0.3,0,0.5,0l8.9,0.4l5.9,0.2c0.5,0,0.9,0,1.4-0.1c1.2-0.2,2.4-0.8,3.3-1.6c1.3-1.2,2-2.8,2.1-4.5
	l0.4-9.4l2.9-69.3l1.8-44.2C108.1,393.9,107.5,392.2,106.3,390.9z"/>
<path class="st4" d="M97.8,381.2c-1.2-0.3-2.5-0.4-3.8-0.4c-10.2,0-18.5,8.3-18.5,18.5v34c0,2.2,1.1,4.2,2.9,5.4
	c0.7,0.5,1.6,0.8,2.4,1c0.4,0.1,0.8,0.1,1.1,0.1h24c0.1,0,0.1,0,0.2,0c3.5-0.1,6.3-3,6.3-6.5v-34C112.5,390.6,106.4,383,97.8,381.2z
	"/>
<path class="st5" d="M226,478.1c-3.2-1.7-4.8-5.4-3.7-8.9l5.7-18.1l-1.7-1.4l-43.7-36.1l-29.2-24.1l-3.5-2.9
	c-2.8-2.3-6.9-1.9-9.1,0.9l-9.4,11.4c-2.3,2.8-1.9,6.8,0.8,9.1l0,0l29.7,24.6l3.4,2.8l61.7,51c2.4,2,5.7,2,8.1,0.1
	c0.3-0.3,0.6-0.5,0.9-0.8l0.1-0.1l1.2-1.4L226,478.1z"/>
<path class="st4" d="M180.5,406.6l-26.3-21.5c-7.9-6.5-19.6-5.3-26,2.6s-5.3,19.6,2.6,26l26.3,21.5c2.4,2,5.8,2,8.2,0
	c0.3-0.3,0.7-0.6,0.9-0.9l15.2-18.6c0.5-0.7,0.9-1.4,1.2-2.2C183.4,411,182.6,408.3,180.5,406.6z"/>
<path class="st4" d="M108.6,316.9c-2.8-4.7-5-9.8-3.9-15.3c0.9-4.9,4.5-8.8,9.6-9.3c3.1-0.3,6.1,0.5,9.1,1c2.5,0.4,5,0.6,7.4,0.5
	c5-0.2,9.9-1.5,14.5-3.7c9.3-4.3,16.2-12.5,19.1-22.3c3-11.1,0.8-23.6-6.4-32.7l2.5-0.7l-3.3,10.7c-0.2,0.8-1.1,1.3-1.9,1
	c-0.1,0-0.2-0.1-0.3-0.1c-12-7.6-26.5-9.9-40.2-6.4c-3.8,1-7.5,2.4-11,4.2c-1.7,0.9-3.2-1.7-1.5-2.6c13.3-6.9,28.8-8.1,42.9-3.3
	c4,1.4,7.8,3.2,11.3,5.5l-2.2,0.9l3.3-10.7c0.2-0.8,1.1-1.3,1.9-1c0.2,0.1,0.5,0.2,0.6,0.4c6.8,8.6,9.8,19.6,8.2,30.5
	c-1.5,10.7-7.5,20.3-16.4,26.3c-9,6-20,8.3-30.6,6.1c-2.9-0.6-6.3-1.4-9.1-0.1c-2.1,1-3.7,2.9-4.2,5.2c-1.6,5.5,1.1,10.8,4,15.4
	L108.6,316.9z"/>
<path class="st2" d="M303.8,427.7l-49.5-28.6c-4.5-2.6-10.4-1.1-13,3.5c-0.3,0.6-0.6,1.2-0.8,1.9l-14.2,45.3l-5.9,18.9
	c-1.4,4.4,0.6,9.2,4.7,11.3l11,5.7l35.8,18.5c1.4,0.7,2.9,1.1,4.4,1.1c1.1,0,2.2-0.2,3.3-0.6h0.1c2.5-1,4.5-3,5.5-5.5l22.9-59.8
	C309.6,434.9,307.9,430,303.8,427.7z M306.1,438.6l-22.9,59.8c-0.8,2-2.4,3.6-4.4,4.3l0,0c-2,0.7-4.2,0.6-6.1-0.4L237.3,484
	l-11.3-5.9c-3.2-1.7-4.8-5.4-3.7-8.9l5.7-18.1l14.5-46c1.3-4,5.5-6.1,9.4-4.9c0.5,0.2,1,0.4,1.5,0.6l49.5,28.6
	C306,431.2,307.4,435.2,306.1,438.6z"/>
<path class="st0" d="M287.2,446.8c-0.5,0-1-0.1-1.4-0.4l-33-18c-1.5-0.8-2-2.6-1.2-4.1c0.8-1.4,2.6-2,4.1-1.2l33,18
	c1.5,0.8,2,2.6,1.2,4.1C289.3,446.2,288.3,446.8,287.2,446.8L287.2,446.8z"/>
<path class="st0" d="M281.2,459.8c-0.5,0-1-0.1-1.4-0.4l-33-18c-1.5-0.8-2-2.6-1.2-4.1c0.8-1.4,2.6-2,4.1-1.2l33,18
	c1.5,0.8,2,2.6,1.2,4.1C283.3,459.2,282.3,459.8,281.2,459.8L281.2,459.8z"/>
<path class="st0" d="M276.2,473.8c-0.5,0-1-0.1-1.4-0.4l-33-18c-1.5-0.8-2-2.6-1.2-4.1c0.8-1.4,2.6-2,4.1-1.2l33,18
	c1.5,0.8,2,2.6,1.2,4.1C278.3,473.2,277.3,473.8,276.2,473.8L276.2,473.8z"/>
<path class="st2" d="M625.2,190.5H486.5c-4.2,0-7.5-3.4-7.5-7.5V7.5c0-4.2,3.4-7.5,7.5-7.5h138.7c4.2,0,7.5,3.4,7.5,7.5V183
	C632.7,187.2,629.4,190.5,625.2,190.5z M486.5,1.7c-3.2,0-5.8,2.6-5.8,5.9V183c0,3.2,2.6,5.8,5.8,5.9h138.7c3.2,0,5.8-2.6,5.8-5.9
	V7.5c0-3.2-2.6-5.8-5.8-5.9H486.5V1.7z"/>
<path class="st0" d="M544.3,84.4h-30.5c-2.1,0-3.8-1.7-3.8-3.8v-36c0-2.1,1.7-3.8,3.8-3.8h30.5c2.1,0,3.8,1.7,3.8,3.8v36
	C548.1,82.7,546.4,84.4,544.3,84.4z"/>
<path class="st6" d="M603.6,101.1h-30.5c-2.1,0-3.8-1.7-3.8-3.8v-36c0-2.1,1.7-3.8,3.8-3.8h30.5c2.1,0,3.8,1.7,3.8,3.8v36
	C607.4,99.4,605.7,101.1,603.6,101.1z"/>
<path class="st7" d="M556,152.1h-30.5c-2.1,0-3.8-1.7-3.8-3.8v-36c0-2.1,1.7-3.8,3.8-3.8H556c2.1,0,3.8,1.7,3.8,3.8v36
	C559.8,150.4,558.1,152,556,152.1z"/>
<path class="st2" d="M444.2,143.1c-1.2-2.8-3.9-4.6-6.9-4.6H298.6c-4.2,0-7.5,3.4-7.5,7.5v175.5c0,4.2,3.4,7.5,7.5,7.5h138.7
	c4.2,0,7.5-3.4,7.5-7.5V146C444.8,145,444.6,144,444.2,143.1z M443.1,321.5c0,3.2-2.6,5.8-5.9,5.9H298.6c-3.2,0-5.8-2.6-5.9-5.9V146
	c0-3.2,2.6-5.8,5.9-5.9h138.7c2.4,0,4.5,1.5,5.4,3.7c0.1,0.2,0.2,0.4,0.2,0.7c0.1,0.5,0.2,1,0.2,1.5V321.5z"/>
<path class="st2" d="M415.3,179.9h-41.8c-1.8,0-3.3-1.5-3.3-3.3s1.5-3.3,3.3-3.3h41.8c1.8,0,3.3,1.5,3.3,3.3
	S417.1,179.9,415.3,179.9z"/>
<path class="st2" d="M415.3,197.4h-41.8c-1.8,0-3.3-1.5-3.3-3.3s1.5-3.3,3.3-3.3h41.8c1.8,0,3.3,1.5,3.3,3.3
	S417.1,197.4,415.3,197.4z"/>
<path class="st0" d="M352.1,207.4h-30.5c-2.1,0-3.8-1.7-3.8-3.8v-36c0-2.1,1.7-3.8,3.8-3.8h30.5c2.1,0,3.8,1.7,3.8,3.8v36
	C355.8,205.8,354.1,207.4,352.1,207.4z"/>
<path class="st6" d="M415,233.4h-94.4c-1.8,0-3.3-1.5-3.4-3.3c0-1.8,1.5-3.3,3.3-3.4l0,0H415c1.8,0,3.3,1.5,3.3,3.4
	C418.3,231.9,416.8,233.4,415,233.4z"/>
<path class="st6" d="M415,250.9h-94.4c-1.8,0-3.3-1.5-3.4-3.3c0-1.8,1.5-3.3,3.3-3.4l0,0H415c1.8,0,3.3,1.5,3.3,3.3
	C418.3,249.4,416.8,250.9,415,250.9z"/>
<path class="st6" d="M415,268.5h-94.4c-1.8,0-3.3-1.5-3.4-3.3c0-1.8,1.5-3.3,3.3-3.4l0,0H415c1.8,0,3.3,1.5,3.3,3.3
	C418.3,267,416.8,268.5,415,268.5z"/>
<path class="st6" d="M415,286h-94.4c-1.8,0-3.3-1.5-3.4-3.3c0-1.8,1.5-3.3,3.3-3.4l0,0H415c1.8,0,3.3,1.5,3.3,3.3
	C418.3,284.5,416.8,286,415,286z"/>
<path class="st6" d="M415,303.6h-94.4c-1.8,0-3.3-1.5-3.4-3.3c0-1.8,1.5-3.3,3.3-3.4l0,0H415c1.8,0,3.3,1.5,3.3,3.4
	C418.3,302.1,416.8,303.6,415,303.6z"/>
<rect x="455.8" y="247.2" transform="matrix(0.7243 -0.6895 0.6895 0.7243 -30.2697 420.3028)" class="st4" width="109.2" height="1.7"/>
<polygon class="st4" points="469.6,286.9 479.6,286.7 479.6,285.1 471.3,285.2 471.9,276.9 470.2,276.8 "/>
<polygon class="st4" points="551.3,209.1 550.7,219.1 549,219 549.5,210.8 541.3,210.9 541.2,209.2 "/>
<ellipse transform="matrix(0.3714 -0.9285 0.9285 0.3714 90.6541 629.8388)" class="st4" cx="510.5" cy="248" rx="9.2" ry="9.2"/>
<rect x="349.8" y="69.1" transform="matrix(0.7243 -0.6895 0.6895 0.7243 63.2436 298.1381)" class="st4" width="109.2" height="1.7"/>
<polygon class="st4" points="363.6,108.9 373.6,108.7 373.6,107.1 365.3,107.2 365.9,98.9 364.2,98.8 "/>
<polygon class="st4" points="445.3,31.1 444.7,41.1 443,41 443.5,32.8 435.3,32.9 435.2,31.2 "/>
<circle class="st4" cx="404.4" cy="70" r="9.2"/>
<rect x="757.9" y="520.9" class="st2" width="2" height="9"/>
</svg>
