<?xml version="1.0" encoding="utf-8"?>
<!-- Generator: Adobe Illustrator 24.0.2, SVG Export Plug-In . SVG Version: 6.00 Build 0)  -->
<svg version="1.1" id="Layer_1" xmlns="http://www.w3.org/2000/svg" xmlns:xlink="http://www.w3.org/1999/xlink" x="0px" y="0px"
	 viewBox="0 0 751.1 669" style="enable-background:new 0 0 751.1 669;" xml:space="preserve">
<style type="text/css">
	.st0{fill:#F2F2F2;}
	.st1{fill:#AACDBE;}
	.st2{fill:#E6E6E6;}
	.st3{fill:#2F2E41;}
	.st4{fill:#FFFFFF;}
	.st5{fill:#FFB8B8;}
	.st6{fill:#3F3D56;}
	.st7{fill:#FFB6B6;}
	.st8{fill:#CACACA;}
</style>
<path class="st0" d="M86.2,669l-0.7-0.2c-22.1-8.4-39.5-26-47.4-48.3c-2.2-6.2-3.5-12.6-4.1-19.2l-0.1-0.6l0.6,0.1
	c7.4,1.3,15.1,2,18.5,2.3l-19.3-12.8l0-0.7c0.3-6.2,4.4-11.7,10.3-13.7c6-2.2,12.6-0.6,16.9,4.2c1.9,2.1,3.9,4.2,5.9,6.2
	c6.7,7,13.7,14.2,18.1,22.7c6.6,13.1,7,28.5,1,41.9C86,650.9,86.2,669,86.2,669z"/>
<path class="st1" d="M476.6,656.7L476.6,656.7c-0.9-19-4.3-37.7-10.3-55.7l0,0c-0.3-1.8-0.2-3.8,0.3-5.6c1.7-5.2,6.9-8.3,12.2-7.4
	c5.5,1,11.2,0.1,16.1-2.8c3.1-1.8,6.8-2,10.1-0.7c3.1,1.3,5.4,3.9,6.3,7.2c0.1,0.3,0.1,0.5,0.2,0.8c0.2,19,3.7,37.9,10.3,55.7l0,0
	c0.7,3.7-0.4,7.5-3,10.2c-2.3,2.3-5.5,3.5-8.7,3.2c-5.8-0.4-11.8,0.8-18.2,3.6c-2.3,1-4.8,1.2-7.2,0.5
	C480.5,664.5,477.4,661,476.6,656.7L476.6,656.7z"/>
<path class="st0" d="M291.4,396.5v248.7h174.2V396.5c0-3.7-2.4-6.9-5.9-8c-0.8-0.3-1.6-0.4-2.5-0.4H299.8
	C295.1,388.1,291.4,391.9,291.4,396.5L291.4,396.5z M359.4,482c0.1-10.3,8.5-18.5,18.8-18.4c10.1,0.1,18.3,8.3,18.4,18.4v28.9
	c0,10.3-8.4,18.6-18.7,18.5c-10.2,0-18.5-8.3-18.5-18.5V482z"/>
<path class="st2" d="M290.8,637.2v24c0,2.6,2.1,4.7,4.7,4.7h165.9c2.6,0,4.7-2.1,4.7-4.7v-24H290.8z"/>
<path class="st3" d="M17.3,21.8v454.1c0,12,9.8,21.8,21.8,21.8H712c12,0,21.8-9.8,21.8-21.8V21.8c0-12-9.8-21.8-21.8-21.8H39.1
	C27.1,0,17.3,9.8,17.3,21.8L17.3,21.8z"/>
<path class="st4" d="M706.4,15.8H44.7c-6.4,0-11.7,5.2-11.7,11.7v442.8c0,6.4,5.2,11.7,11.7,11.7h661.7c6.4,0,11.7-5.2,11.7-11.7
	V27.5C718.1,21,712.8,15.8,706.4,15.8L706.4,15.8z M539.5,330.4c-2,3.9-6,6.4-10.4,6.4l-0.1,0c-6.3-0.9-12.7-1.5-19.1-1.7
	c1,0.7,1.9,1.6,2.6,2.6c1.9,2.7,2.4,6,1.6,9.1c-1.4,5.6-1.4,11.7,0.2,18.6c0.6,2.4,0.3,4.9-0.8,7.1c-2,3.9-6,6.4-10.4,6.4l-0.1,0
	c-15.1-2.1-30.5-2.5-45.7-1.2c-0.1,0.4-0.1,0.8-0.2,1.2c-1.4,5.6-1.4,11.7,0.2,18.6c0.6,2.4,0.3,4.9-0.8,7.1c-2,3.9-6,6.4-10.4,6.4
	l-0.1,0c-15.6-2.2-31.3-2.5-47-1.1c-0.1,3.9,0.3,7.8,1.2,11.6c0.6,2.4,0.3,4.9-0.8,7.1c-2,3.9-6,6.4-10.4,6.4l-0.1,0
	c-18.8-2.6-37.8-2.6-56.6,0h0c-1.9,0-3.7-0.4-5.4-1.3c-4.8-2.6-6.9-8.3-5.1-13.4c0.6-1.6,1-3.3,1.3-4.9c-17.2-2-34.6-1.8-51.8,0.6h0
	c-1.9,0-3.7-0.4-5.4-1.3c-4.8-2.6-6.9-8.3-5.1-13.4c2-5.2,2.1-11,0.2-16.3c-0.9-2.5-0.9-5.2,0-7.7c-12.9-0.7-25.9-0.1-38.7,1.7h0
	c-1.9,0-3.7-0.4-5.4-1.3c-4.8-2.6-6.9-8.3-5.1-13.4c2-5.2,2.1-11,0.2-16.3c-1.2-3.4-0.8-7.1,1.2-10.1c1.8-2.8,4.9-4.6,8.2-4.9
	c0.3,0,0.5,0,0.8,0c6.6,1.1,13.2,1.9,19.9,2.2c-4.3-2.8-6-8.1-4.3-12.9c2-5.2,2.1-11,0.2-16.3c-1.2-3.4-0.8-7.1,1.2-10.1
	c0.1-0.1,0.2-0.2,0.3-0.4c-4.7,0.3-9.5,0.8-14.2,1.5h0c-1.9,0-3.7-0.4-5.4-1.3c-4.8-2.6-6.9-8.3-5.1-13.4c2-5.2,2.1-11,0.2-16.3
	c-1.2-3.4-0.8-7.1,1.2-10.1c1.8-2.8,4.9-4.6,8.2-4.9c0.3,0,0.5,0,0.8,0c7.9,1.4,15.9,2.2,23.9,2.4c-2-2.9-2.5-6.7-1.4-10.1
	c2-5.2,2.1-11,0.2-16.3c-1.2-3.4-0.8-7.1,1.2-10.1c1.8-2.8,4.9-4.6,8.2-4.9c0.3,0,0.5,0,0.8,0c6.7,1.2,13.4,1.9,20.2,2.3
	c-1.5-2.8-1.7-6-0.7-8.9c2-5.2,2.1-11,0.2-16.3c-1.2-3.4-0.8-7.1,1.2-10.1c1.8-2.8,4.9-4.6,8.2-4.9c0.3,0,0.5,0,0.8,0
	c7.9,1.4,15.8,2.2,23.8,2.4c-1.1-2.6-1.2-5.5-0.2-8.1c2-5.2,2.1-11,0.2-16.3c-1.2-3.4-0.8-7.1,1.2-10.1c1.8-2.8,4.9-4.6,8.2-4.9
	c0.3,0,0.5,0,0.8,0c18.7,3.3,37.9,3.3,56.7,0h0c1.4,0.3,2.9,0.3,4.4,0h0c18.7,3.3,37.9,3.3,56.7,0c0.3,0,0.5,0,0.8,0
	c3.4,0.2,6.4,2,8.2,4.9c1.9,3,2.4,6.7,1.2,10.1c-1.9,5.3-1.8,11.1,0.2,16.3c0.9,2.6,0.8,5.5-0.2,8.1c8-0.2,15.9-1,23.8-2.4
	c0.3,0,0.5,0,0.8,0c3.4,0.2,6.4,2,8.2,4.9c1.9,3,2.4,6.7,1.2,10.1c-1.9,5.3-1.8,11.1,0.2,16.3c1,2.9,0.8,6.2-0.7,8.9
	c6.8-0.3,13.5-1.1,20.2-2.3c0.3,0,0.5,0,0.8,0c3.4,0.2,6.4,2,8.2,4.9c1.9,3,2.4,6.7,1.2,10.1c-1.9,5.3-1.8,11.1,0.2,16.3
	c1.2,3.4,0.7,7.2-1.4,10.1c0.9,0.7,1.7,1.5,2.3,2.4c1.9,2.7,2.4,6,1.6,9.1c-1.4,5.6-1.4,11.7,0.2,18.6c0.6,2.4,0.3,4.9-0.8,7.1
	c-0.4,0.8-0.9,1.5-1.5,2.2c4.7-0.4,9.4-1,14-1.8h0c3.7,0,7.3,1.8,9.5,4.8c1.9,2.7,2.4,6,1.6,9.1c-1.4,5.6-1.4,11.7,0.2,18.6
	C540.9,325.6,540.6,328.2,539.5,330.4z"/>
<path class="st3" d="M684.9,76.8H65.8c-1.4,0-2.4-1.2-2.4-2.5c0-1.3,1.1-2.4,2.4-2.4h619.1c1.4,0,2.4,1.2,2.4,2.5
	C687.3,75.7,686.3,76.7,684.9,76.8z"/>
<path class="st1" d="M382.9,422.9L382.9,422.9c-18.8-2.6-37.9-2.6-56.7,0h0c-1.9,0-3.7-0.4-5.4-1.3c-4.8-2.6-6.9-8.3-5.1-13.4
	c2-5.2,2.1-11,0.2-16.3c-1.2-3.4-0.8-7.1,1.2-10.1c1.8-2.8,4.9-4.6,8.2-4.9c0.3,0,0.5,0,0.8,0c18.7,3.3,37.9,3.3,56.7,0h0
	c3.7,0,7.3,1.8,9.5,4.8c1.9,2.7,2.4,6,1.6,9.1c-1.4,5.6-1.4,11.7,0.2,18.6c0.6,2.4,0.3,4.9-0.8,7.1
	C391.2,420.5,387.2,423,382.9,422.9z"/>
<path class="st5" d="M440.6,324.9l-15.1-12.5c-11.3,5.9-28.6,29.6-28.6,29.6l-39.8,28.6c-4.8,0.2-8.5,4.3-8.2,9.1s4.3,8.5,9.1,8.2
	c3.1-0.1,5.9-1.9,7.3-4.7l54-28.5L440.6,324.9z"/>
<path class="st6" d="M466.1,277.3L466.1,277.3c8.7,7.4,9.8,20.4,2.4,29.2c-0.8,1-1.7,1.9-2.7,2.7l-9.6,7.8c0,0-24,34.5-36.4,38.5
	l-32,16.7l-14.4-14.5l29-23.6c0,0,13.3-12.6,14.7-21.9c0.8-5.7,10.4-21.1,20-32.5C444.3,271,457.4,269.9,466.1,277.3L466.1,277.3z"
	/>
<polygon class="st7" points="435,651.7 421.4,651.7 414.9,599 435,599 "/>
<path class="st3" d="M435.5,665.9l-42,0v-0.5c0-9,7.3-16.3,16.3-16.3h0l7.7-5.8l14.3,5.8l3.7,0L435.5,665.9z"/>
<polygon class="st7" points="539,579.8 532.6,591.9 483.1,572.7 492.7,554.9 "/>
<path class="st3" d="M551.8,586.2l-19.9,37l-0.5-0.3c-7.9-4.3-10.9-14.2-6.7-22.1l0,0l-1.5-9.5l11.9-9.8l1.7-3.2L551.8,586.2z"/>
<path class="st3" d="M409.2,410.6l-12,96.4l6,32.3l108.4,47.5l6-19.6c-27.7-17-57.3-42.6-76-44.5c0,0-1.5-17.1,11.8-27.7
	c2.7-2.1,2.1-5,3.2-7.6c0.8-1.8,3.7-3.7,4.5-5.5c1-2.4-0.2-4.8,0.8-7.2c0.6-1.4,2.7-1.4,3.2-2.8c0.9-2.3,0.3-5.9,1.3-8.2
	c2-4.9,3.9-9.7,5.6-14.2c5.4-14,9.2-25.1,8.7-27.5C479.2,414.4,409.2,410.6,409.2,410.6L409.2,410.6z"/>
<path class="st3" d="M407.2,506.7l-6.3,40.7l15.9,83h21.1c7.6-27.9,8-64.6,0.8-95.6L407.2,506.7z"/>
<path class="st6" d="M420.7,292.9l9.7-16.9l10.4-8.4l19.6-3l5.4,4.2l0,0c19.6,29.9,26.9,66.2,20.4,101.4l-1.5,8.3l-1,5.3l0.4,6.3
	l-3.3,9.1l0.4,6.7l0.2,3.6l0.2,3.6l0.3,5c0.6,2.9-2.4,2.5-2,5c0.8,4.4,4.1,11-1,11l-53-11c-13.5,0.1-26-16-13-29L420.7,292.9z"/>
<circle class="st5" cx="445.5" cy="234.1" r="25.7"/>
<path class="st3" d="M445.9,259.1c3.8,0.1,7.5-0.2,11.3-0.8c3.7-0.8,11.9-6.8,14.2-10.4l0,0c1.7-2.7,2.8-6.9,3.4-10
	c1.7-8.2-0.2-16.7-5.2-23.5c-0.9-1.4-2.2-2.5-3.8-3.2c-0.1-0.1-0.3-0.1-0.4-0.1c-2.2-0.6-4.2-1.8-5.7-3.5c-0.3-0.3-0.6-0.7-1-1
	c-1.7-1.4-3.7-2.5-5.9-3c-3.5-0.9-8.6,0-15.1,2.8c-3.3,1.4-6.9,0.9-9.6,0.3c-0.3-0.1-0.6,0.1-0.8,0.3c-1.2,1.1-2.7,1.7-4.3,1.7
	c-1,0-2,1.4-3.3,3.2c-0.3,0.4-0.6,0.9-0.9,1.2l0-0.6l-0.6,0.6c-2.9,3.2-2.6,8.1,0.5,10.9c0.9,0.8,1.9,1.3,3,1.7c1,0.3,2,0.4,3,0.5
	c0.6,0.1,1.3,0.1,1.9,0.2c4,0.8,7.3,3.7,8.7,7.6c0.6,1.6,2.3,2.4,3.9,1.8c0.2-0.1,0.5-0.2,0.7-0.4c1.3-1,3-1.3,4.6-0.8
	c0.7,0.4,1.2,1,1.5,1.7c0.3,0.8,0.9,1.5,1.7,1.9c2.5,1.3,2.7,7,1.8,11.8c-0.9,4.6-2.6,7.9-4.2,8.1c-1.2,0.1-1.4,0.2-1.4,0.4
	l-0.1,0.2l0.1,0.2C444.5,259.1,445.2,259.2,445.9,259.1z"/>
<path class="st1" d="M393.9,243.9L393.9,243.9c-18.8-2.6-37.9-2.6-56.7,0h0c-1.9,0-3.7-0.4-5.4-1.3c-4.8-2.6-6.9-8.3-5.1-13.4
	c2-5.2,2.1-11,0.2-16.3c-1.2-3.4-0.8-7.1,1.2-10.1c1.8-2.8,4.9-4.6,8.2-4.9c0.3,0,0.5,0,0.8,0c18.7,3.3,37.9,3.3,56.7,0h0
	c3.7,0,7.3,1.8,9.5,4.8c1.9,2.7,2.4,6,1.6,9.1c-1.4,5.6-1.4,11.7,0.2,18.6c0.6,2.4,0.3,4.9-0.8,7.1
	C402.2,241.5,398.2,244,393.9,243.9z"/>
<path class="st5" d="M417.9,304.6l10.6-16.5c-7.2-10.6-32.8-24.9-32.8-24.9l-33-36.1c-0.8-4.7-5.2-7.9-10-7.1
	c-4.7,0.8-7.9,5.2-7.1,10c0.5,3.1,2.6,5.6,5.5,6.7l34.7,50.3L417.9,304.6z"/>
<path class="st6" d="M468.1,324.3L468.1,324.3c-6.3,9.5-19.2,12.1-28.7,5.8c-1.1-0.7-2.1-1.5-3-2.4l-8.9-8.6
	c0,0-37.2-19.4-42.6-31.4l-24.4-34.6l16.3-14.7l28.4,25.8c0,0,13.1,15.1,22.4,15.4c5.7,0.2,22.1,7.9,34.6,16.1
	C471.9,302,474.5,314.8,468.1,324.3L468.1,324.3z"/>
<path class="st1" d="M220.2,665.8L220.2,665.8c-18.8-2.6-37.9-2.6-56.7,0h0c-1.9,0-3.7-0.4-5.4-1.3c-4.8-2.6-6.9-8.3-5.1-13.4
	c2-5.2,2.1-11,0.2-16.3c-1.2-3.4-0.8-7.1,1.2-10.1c1.8-2.8,4.9-4.6,8.2-4.9c0.3,0,0.5,0,0.8,0c18.7,3.3,37.9,3.3,56.7,0h0
	c3.7,0,7.3,1.8,9.5,4.8c1.9,2.7,2.4,6,1.6,9.1c-1.4,5.6-1.4,11.7,0.2,18.6c0.6,2.4,0.3,4.9-0.8,7.1
	C228.6,663.3,224.6,665.8,220.2,665.8z"/>
<path class="st1" d="M236.2,623.8L236.2,623.8c-18.8-2.6-37.9-2.6-56.7,0h0c-1.9,0-3.7-0.4-5.4-1.3c-4.8-2.6-6.9-8.3-5.1-13.4
	c2-5.2,2.1-11,0.2-16.3c-1.2-3.4-0.8-7.1,1.2-10.1c1.8-2.8,4.9-4.6,8.2-4.9c0.3,0,0.5,0,0.8,0c18.7,3.3,37.9,3.3,56.7,0h0
	c3.7,0,7.3,1.8,9.5,4.8c1.9,2.7,2.4,6,1.6,9.1c-1.4,5.6-1.4,11.7,0.2,18.6c0.6,2.4,0.3,4.9-0.8,7.1
	C244.6,621.3,240.6,623.8,236.2,623.8z"/>
<path class="st1" d="M96.2,635.2L96.2,635.2c12.7-14.1,23.4-29.9,31.8-46.9l0,0c1-1.6,2.5-2.8,4.1-3.7c4.8-2.5,10.7-1.1,13.9,3.3
	c3.2,4.6,8,7.9,13.4,9.3c3.5,0.9,6.3,3.3,7.7,6.6c1.3,3.1,1.1,6.6-0.6,9.5c-0.1,0.2-0.3,0.5-0.4,0.7c-13.2,13.7-24,29.6-31.8,46.9
	l0,0c-2.1,3.1-5.5,5-9.3,5.2c-3.2,0-6.3-1.4-8.4-3.8c-3.8-4.3-8.9-7.7-15.5-10.2c-2.3-0.9-4.2-2.5-5.5-4.7
	C93.6,643.5,93.8,638.8,96.2,635.2z"/>
<path class="st8" d="M749.9,667.3L1.2,667.6c-0.7,0-1.2-0.5-1.2-1.2c0-0.7,0.5-1.2,1.2-1.2l748.8-0.3c0.7,0,1.2,0.5,1.2,1.2
	C751.1,666.8,750.6,667.3,749.9,667.3z"/>
<g>
	<ellipse class="st6" cx="160.3" cy="45.3" rx="8.5" ry="8.6"/>
	<ellipse class="st6" cx="189.5" cy="45.3" rx="8.5" ry="8.6"/>
	<ellipse class="st6" cx="218.7" cy="45.3" rx="8.5" ry="8.6"/>
	<path class="st6" d="M252,52.1c-0.3,0-0.5-0.1-0.7-0.3l-5.7-5.8c-0.4-0.4-0.4-1,0-1.4l5.7-5.8c0.4-0.4,1-0.4,1.4,0
		c0.4,0.4,0.4,1,0,1.4l-5,5.1l5,5.1c0.4,0.4,0.4,1,0,1.4C252.5,52,252.2,52.1,252,52.1z"/>
	<path class="st6" d="M261.6,52.1c-0.3,0-0.5-0.1-0.7-0.3c-0.4-0.4-0.4-1,0-1.4l5-5.1l-5-5.1c-0.4-0.4-0.4-1,0-1.4
		c0.4-0.4,1-0.4,1.4,0l5.7,5.8c0.4,0.4,0.4,1,0,1.4l-5.7,5.8C262.1,52,261.8,52.1,261.6,52.1z"/>
	<path class="st6" d="M560.1,37.6h-10.6c-1.2,0-2.2,1-2.2,2.2v10.6c0,1.2,1,2.2,2.2,2.2h10.6c1.2,0,2.2-1,2.2-2.2V39.8
		C562.3,38.6,561.3,37.6,560.1,37.6z"/>
	<path class="st6" d="M534.1,37.6h-10.6c-1.2,0-2.2,1-2.2,2.2v10.6c0,1.2,1,2.2,2.2,2.2h10.6c1.2,0,2.2-1,2.2-2.2V39.8
		C536.3,38.6,535.3,37.6,534.1,37.6z"/>
	<path class="st6" d="M584.6,38.1H574c-1.2,0-2.2,1-2.2,2.2v10.6c0,1.2,1,2.2,2.2,2.2h10.6c1.2,0,2.2-1,2.2-2.2V40.3
		C586.8,39.1,585.8,38.1,584.6,38.1z"/>
	<path class="st6" d="M424.7,42.2h-84.8c-1.5,0-2.7,1.2-2.7,2.7s1.2,2.7,2.7,2.7h84.8c1.5,0,2.7-1.2,2.7-2.7S426.1,42.2,424.7,42.2z
		"/>
</g>
</svg>
