<?xml version="1.0" encoding="utf-8"?>
<!-- Generator: Adobe Illustrator 24.0.2, SVG Export Plug-In . SVG Version: 6.00 Build 0)  -->
<svg version="1.1" id="Layer_1" xmlns="http://www.w3.org/2000/svg" xmlns:xlink="http://www.w3.org/1999/xlink" x="0px" y="0px"
	 viewBox="0 0 854.6 686" style="enable-background:new 0 0 854.6 686;" xml:space="preserve">
<style type="text/css">
	.st0{fill:#3F3D56;}
	.st1{fill:#AACDBE;}
	.st2{fill:#A0616A;}
	.st3{fill:#2F2E41;}
</style>
<title>runner_start</title>
<rect y="600" class="st0" width="821" height="9.1"/>
<rect y="676.9" class="st0" width="821" height="9.1"/>
<path class="st0" d="M750.2,608.3c-0.5-0.8-12.1-20.1-16.1-60.2c-3.7-36.8-1.3-98.8,30.9-185.4c60.9-163.9-14-296.2-14.8-297.5
	l3.7-2.1c0.2,0.3,19.5,34.1,31,87.8C799.9,222,794.4,296,769,364.2c-60.8,163.6-15.6,241.1-15.1,241.9L750.2,608.3z"/>
<circle class="st0" cx="726.3" cy="27.8" r="27.8"/>
<circle class="st0" cx="814" cy="130.4" r="27.8"/>
<circle class="st1" cx="754.1" cy="198.8" r="27.8"/>
<circle class="st1" cx="826.8" cy="256.6" r="27.8"/>
<circle class="st0" cx="732.8" cy="346.4" r="27.8"/>
<path class="st0" d="M767,609.4c0,0-27.8-68.4,55.6-119.7L767,609.4z"/>
<path class="st0" d="M732.8,608.1c0,0-12.6-72.8-110.6-72.1L732.8,608.1z"/>
<circle class="st2" cx="136.5" cy="387.5" r="41"/>
<path class="st3" d="M143.9,336.5c-7.8-1.9-16.3-2.2-23.9,0.5c-7.8,2.8-14.3,8.7-19,15.5s-7.9,14.6-10.8,22.4
	c-1.7,4.3-2.9,8.7-3.8,13.1c-2.1,12.1,0.9,24.5,8.2,34.3c-1.2-3.2,1.8-6.6,5.1-7.3s6.7,0.5,10,1.4c5.8,1.5,11.7,2.2,17.7,2.1
	c2.3-0.1,4.7-0.3,6.6-1.6c6-4,2.8-14.3,7.8-19.4c1.8-1.8,4.3-2.7,6.6-3.9c8.2-4.2,13.6-12.6,16.2-21.4c1.6-5.5,5.6-21.4,2.2-26.6
	C163.6,341,149.1,337.8,143.9,336.5z"/>
<path class="st2" d="M248.1,342.3c-6.1-2.1-12.8-1.8-18.7,1c-10.7,5-29.6,17.2-28.9,40.2c1,32,12,53,12,53l-2,65l-10,118
	c0,0-49,40-30,50s51-48,51-48l25-67l9-65c0,0,15-68,0-98C255.5,391.5,272.8,351.3,248.1,342.3z"/>
<path class="st2" d="M367.5,445.5c0,0-17,72,43,92s139,54,139,54l10,17l23-31l-4-24l-39-11c0,0-73-56-105-60l4-37H367.5z"/>
<path class="st2" d="M527.3,387.7l21.2,34.8c0,0,70,40,88,67s61,56,61,56l-19,45c0,0-54-63-77-69s-125-88-125-88L527.3,387.7z"/>
<path class="st1" d="M338.6,265.8c-7.8,1.2-15.6,2.5-23.3,4.2c-17.9,4-35.1,10.6-52,18c-23.5,10.3-46.4,22.1-68.4,35.3
	c-5.9,3.4-11.6,7.2-17,11.5c-3.6,3-6.9,6.4-8.8,10.6c-1.2,2.9-2,6.1-2.3,9.2c-1.6,11.1-1.5,22.6,1.5,33.4s9.1,21,18.1,27.7
	c2.4,1.8,5,3.3,7.8,4.3c3.8,1.2,7.7,1.8,11.7,2c12.6,1,25.8,1.9,37.5-3c7.4-3.1,13.7-8.4,20.5-12.6c28.9-18,65.6-17.2,97.3-29.9
	c3.1-1.2,6.2-2.7,8.4-5.2c1.6-2.2,2.9-4.6,3.6-7.2c4-11.1,8-22.1,12-33.2c2.5-7,5.1-14,7.2-21.2c2.2-7.5,4-15.1,5.8-22.7
	c1.5-6.5,3.1-13.4,2.5-20.1c-0.9-10-3.2-10.4-12.3-8.9C371.7,260.6,355.1,263.2,338.6,265.8z"/>
<path class="st2" d="M218.1,342.3c-6.1-2.1-12.8-1.8-18.7,1c-10.7,5-29.6,17.2-28.9,40.2c1,32,12,53,12,53l-2,65l-10,118
	c0,0-49,40-30,50s51-48,51-48l25-67l9-65c0,0,15-68,0-98C225.5,391.5,242.8,351.3,218.1,342.3z"/>
<path class="st3" d="M391.7,257.5c0,0,88.8-8,84.8,47s-34,150-34,150l-77,4c0,0-10-65,4-87L391.7,257.5z"/>
<path class="st3" d="M453.5,275.5c0,0,22,14,34,42s48,83,48,83l-59,42l-44-45L453.5,275.5z"/>
<path class="st3" d="M559.5,587.5c0,0-19,7-6,21c8,8.7,14.7,18.4,20,29c0,0-4,26,13,25s24-36,20-48s-9-69-9-69s-35,3-34,8
	S569.5,583.5,559.5,587.5z"/>
<path class="st3" d="M678.5,567.5c0,0-18,9-13,17s21,31,21,31s-6,30,11,33s27-36,24-44s-3-39-3-39s1-31-9-31s-27,4-27,4
	S686.5,566.5,678.5,567.5z"/>
<rect x="96" y="617.9" class="st1" width="29" height="50.6"/>
</svg>
