<?xml version="1.0" encoding="utf-8"?>
<!-- Generator: Adobe Illustrator 24.0.2, SVG Export Plug-In . SVG Version: 6.00 Build 0)  -->
<svg version="1.1" id="Layer_1" xmlns="http://www.w3.org/2000/svg" xmlns:xlink="http://www.w3.org/1999/xlink" x="0px" y="0px"
	 viewBox="0 0 615.8 496.3" style="enable-background:new 0 0 615.8 496.3;" xml:space="preserve">
<style type="text/css">
	.st0{fill:#3F3D56;}
	.st1{fill:#AACDBE;}
	.st2{fill:#F2F2F2;}
	.st3{fill:#CCCCCC;}
	.st4{fill:#A0616A;}
	.st5{fill:#2F2E41;}
</style>
<path class="st0" d="M324.6,460.4c-53.3,0-103.6-16.7-145.5-48.4l1.3-1.6c41.5,31.4,91.3,48,144.2,48s102.8-16.6,144.3-48.1l1.3,1.6
	C428.3,443.7,378,460.4,324.6,460.4L324.6,460.4z"/>
<path class="st1" d="M561.6,392.5c2.1,0.1,3.2-2.4,1.6-3.9L563,388c0,0,0-0.1,0.1-0.1c2.1-5,9.2-4.9,11.2,0
	c1.8,4.4,4.2,8.9,4.8,13.5c0.3,2.1,0.1,4.2-0.3,6.2c4.3-9.4,6.6-19.7,6.6-30c0-2.6-0.1-5.2-0.4-7.8c-0.2-2.1-0.6-4.2-1-6.3
	c-2.3-11.3-7.3-22-14.5-31c-3.5-1.9-6.3-4.9-8.1-8.4c-0.6-1.3-1.1-2.7-1.3-4.1c0.4,0.1,1.5-5.9,1.2-6.3c0.5-0.8,1.5-1.2,2.1-2.1
	c3-4,7.1-3.3,9.2,2.2c4.6,2.3,4.6,6.1,1.8,9.8c-1.8,2.3-2,5.5-3.6,8c0.2,0.2,0.3,0.4,0.5,0.6c3,3.8,5.5,7.9,7.7,12.2
	c-0.6-4.8,0.3-10.5,1.8-14.2c1.7-4.2,5-7.8,7.9-11.4c3.5-4.4,10.6-2.5,11.2,3.1c0,0.1,0,0.1,0,0.2c-0.4,0.2-0.8,0.5-1.3,0.8
	c-2.3,1.5-1.5,5.2,1.2,5.6h0.1c-0.2,1.5-0.4,3.1-0.8,4.6c3.7,14.3-4.3,19.5-15.7,19.8c-0.3,0.1-0.5,0.3-0.7,0.4
	c1.2,3.3,2.1,6.6,2.8,10c0.6,3,1,6,1.3,9c0.3,3.8,0.3,7.7-0.1,11.5v-0.1c0.8-4.2,3.1-8.1,6.4-10.9c4.9-4.1,11.9-5.6,17.3-8.8
	c2.6-1.6,5.9,0.5,5.4,3.4v0.1c-0.8,0.3-1.6,0.7-2.3,1.1c-0.4,0.2-0.8,0.5-1.3,0.8c-2.3,1.5-1.5,5.2,1.2,5.6h0.1h0.1
	c-1.4,3.2-3.3,6.2-5.6,8.8c-2.3,12.5-12.3,13.7-22.9,10l0,0c-1.2,5.1-2.9,10-5,14.7h-18c-0.1-0.2-0.1-0.4-0.2-0.6
	c1.7,0.1,3.3,0,5-0.3c-1.3-1.6-2.7-3.3-4-4.9l-0.1-0.1c-0.7-0.8-1.4-1.7-2-2.5l0,0C560.6,397.6,560.9,395,561.6,392.5L561.6,392.5
	L561.6,392.5z"/>
<path class="st1" d="M54.3,392.5c-2.1,0.1-3.2-2.4-1.6-3.9l0.2-0.6c0,0,0-0.1-0.1-0.1c-2.1-5-9.2-4.9-11.2,0
	c-1.8,4.4-4.2,8.9-4.8,13.5c-0.3,2.1-0.1,4.2,0.3,6.2c-4.3-9.4-6.6-19.7-6.6-30c0-2.6,0.1-5.2,0.4-7.8c0.2-2.1,0.6-4.2,1-6.3
	c2.3-11.3,7.3-22,14.5-31c3.5-1.9,6.3-4.9,8.1-8.4c0.6-1.3,1.1-2.7,1.3-4.1c-0.4,0.1-1.5-5.9-1.2-6.3c-0.5-0.8-1.5-1.2-2.1-2.1
	c-3-4-7.1-3.3-9.2,2.2c-4.6,2.3-4.6,6.1-1.8,9.8c1.8,2.3,2,5.5,3.6,8c-0.2,0.2-0.3,0.4-0.5,0.6c-3,3.8-5.5,7.9-7.7,12.2
	c0.6-4.8-0.3-10.5-1.8-14.2c-1.7-4.2-5-7.8-7.9-11.4c-3.5-4.4-10.6-2.5-11.2,3.1c0,0.1,0,0.1,0,0.2c0.4,0.2,0.8,0.5,1.3,0.8
	c2.3,1.5,1.5,5.2-1.2,5.6H16c0.2,1.5,0.4,3.1,0.8,4.6c-3.7,14.3,4.3,19.5,15.7,19.8c0.3,0.1,0.5,0.3,0.7,0.4
	c-1.2,3.3-2.1,6.6-2.8,10c-0.6,3-1,6-1.3,9c-0.3,3.8-0.3,7.7,0.1,11.5v-0.1c-0.8-4.2-3.1-8.1-6.4-10.9c-4.9-4.1-11.9-5.6-17.3-8.8
	c-2.6-1.6-5.9,0.5-5.4,3.4v0.1c0.8,0.3,1.6,0.7,2.3,1.1c0.4,0.2,0.8,0.5,1.3,0.8c2.3,1.5,1.5,5.2-1.2,5.6H2.4H2.3
	c1.4,3.2,3.3,6.2,5.6,8.8c2.3,12.5,12.3,13.7,22.9,10l0,0c1.2,5.1,2.9,10,5,14.7h18c0.1-0.2,0.1-0.4,0.2-0.6c-1.7,0.1-3.3,0-5-0.3
	c1.3-1.6,2.7-3.3,4-4.9l0.1-0.1c0.7-0.8,1.4-1.7,2-2.5l0,0C55.2,397.6,54.9,395,54.3,392.5L54.3,392.5L54.3,392.5z"/>
<path class="st2" d="M150.7,411.1l-0.8,1c-32.8-28-51.6-68.8-51.6-111.9c0-39.3,15.3-76.2,43.1-103.9
	c27.8-27.8,64.7-43.1,103.9-43.1s76.2,15.3,103.9,43.1c27.8,27.8,43.1,64.7,43.1,103.9c0,43.1-18.8,83.9-51.6,111.9l-0.8-1"/>
<path class="st0" d="M472.4,410.6l-1.3-1.5c50.2-42.8,79-105.3,79-171.2c0-124.1-100.9-225-225-225s-225,100.9-225,225
	c0,66,28.8,128.4,79,171.2l-1.3,1.5C127.1,367.4,98,304.4,98,237.8c0-60.6,23.6-117.6,66.5-160.5S264.4,10.8,325,10.8
	s117.6,23.6,160.5,66.5S552,177.2,552,237.8C552.2,304.4,523.1,367.3,472.4,410.6L472.4,410.6z"/>
<path class="st3" d="M395,410.2c0,0.7,0.5,1.2,1.2,1.2h218.3c0.7,0,1.2-0.5,1.2-1.2s-0.5-1.2-1.2-1.2H396.2
	C395.5,409,395,409.5,395,410.2z"/>
<rect x="324.2" y="11.8" class="st0" width="2" height="69.4"/>
<rect x="100.5" y="234.5" class="st0" width="69.4" height="2"/>
<rect x="197.2" y="59.8" transform="matrix(0.7747 -0.6323 0.6323 0.7747 -15.0885 146.6047)" class="st0" width="2" height="69.4"/>
<rect x="135.5" y="349.5" transform="matrix(0.7746 -0.6325 0.6325 0.7746 -183.3038 186.6645)" class="st0" width="69.4" height="2"/>
<rect x="480.5" y="234.5" class="st0" width="69.4" height="2"/>
<rect x="417.5" y="93.5" transform="matrix(0.6322 -0.7748 0.7748 0.6322 93.1169 385.1027)" class="st0" width="69.4" height="2"/>
<rect x="479.2" y="315.8" transform="matrix(0.6323 -0.7747 0.7747 0.6323 -94.98 500.8895)" class="st0" width="2" height="69.4"/>
<circle class="st0" cx="325.2" cy="230.8" r="28"/>
<circle class="st0" cx="454.2" cy="327.8" r="10"/>
<circle class="st0" cx="476.2" cy="237.8" r="10"/>
<circle class="st0" cx="428.2" cy="121.8" r="10"/>
<circle class="st0" cx="324.2" cy="83.8" r="10"/>
<circle class="st0" cx="221.2" cy="121.8" r="10"/>
<circle class="st0" cx="170.2" cy="234.8" r="10"/>
<circle class="st0" cx="198.2" cy="326.8" r="10"/>
<g>
	<circle class="st1" cx="270.2" cy="232.8" r="10"/>
	<path class="st1" d="M277.2,225.2l223.8-9.6c3.9-0.2,7.1,2.8,7.3,6.7l0,0c0.2,3.9-2.8,7.1-6.7,7.3l-223.8,9.6
		c-3.9,0.2-7.1-2.8-7.3-6.7l0,0C270.4,228.6,273.4,225.3,277.2,225.2z"/>
</g>
<g>
	<polygon class="st4" points="402.1,487.7 390.4,487.7 384.9,442.7 402.1,442.7 	"/>
	<path class="st5" d="M362.1,487.5L362.1,487.5c-0.4,0.6-0.6,2.6-0.6,3.3l0,0c0,2.2,1.8,4,4,4h36.1c1.5,0,2.7-1.2,2.7-2.7v-1.5
		c0,0,1.8-4.5-1.9-10.1c0,0-4.6,4.4-11.4-2.5l-2-3.6L374.4,485l-8.1,1C364.6,486.2,363,485.9,362.1,487.5L362.1,487.5z"/>
</g>
<g>
	<polygon class="st4" points="463.5,487.7 451.8,487.7 446.3,442.7 463.5,442.7 	"/>
	<path class="st5" d="M423.5,487.5L423.5,487.5c-0.4,0.6-0.6,2.6-0.6,3.3l0,0c0,2.2,1.8,4,4,4H463c1.5,0,2.7-1.2,2.7-2.7v-1.5
		c0,0,1.8-4.5-1.9-10.1c0,0-4.6,4.4-11.4-2.5l-2-3.6L435.9,485l-8.1,1C426,486.2,424.4,485.9,423.5,487.5L423.5,487.5z"/>
</g>
<g>
	<polygon class="st4" points="490.6,125.6 491.8,178.4 480.4,226 469.7,222.4 472.8,179.1 470.1,120.7 	"/>
	
		<ellipse transform="matrix(0.1434 -0.9897 0.9897 0.1434 175.3435 667.5561)" class="st4" cx="473.3" cy="232.5" rx="12.5" ry="7.4"/>
	<path class="st1" d="M463.7,77.8c0,0,19.6,0,22.9,11.5c3.4,12,8.9,56.5,6.6,56.5l-24.5,3.1L463.7,77.8L463.7,77.8z"/>
</g>
<g>
	<polygon class="st4" points="387.9,131.2 377,183 355.1,226.7 345.5,220.8 358.4,179.3 375,121.9 	"/>
	
		<ellipse transform="matrix(0.3647 -0.9311 0.9311 0.3647 4.7758 469.8253)" class="st4" cx="346.7" cy="231.4" rx="12.5" ry="7.4"/>
	<path class="st1" d="M384.4,79.9c0,0,10.7,4.8,13.7,16.4c2.7,10.5,9.5,56.9-10.3,54.7l-25-2C362.6,124.4,373.2,101.2,384.4,79.9z"
		/>
</g>
<path class="st5" d="M381.2,230.8l-4,36l2,101.2l4,94.8h21.2l23.8-173l15.5,173h24.6l7-117c0,0,5-109-4-118S381.2,230.8,381.2,230.8
	L381.2,230.8z"/>
<path class="st1" d="M447.7,59.3h-32.8l-7.2,10c0,0-14,2-23,11l-1,96l-6.5,62.8l98-2.8l-6-34.5l4-121.1c0,0-10.5-12.4-17.5-10.4
	L447.7,59.3z"/>
<circle class="st4" cx="423" cy="29.4" r="24.5"/>
<path class="st5" d="M444,6.6c-2.7-2.4-6.5-3.8-10.1-3.6c-2.2,0.1-4.3-0.5-6.2-1.5c-0.1-0.1-0.3-0.1-0.4-0.2
	c-1.2-0.5-2.6-0.6-3.9-0.5c-2.4,0.1-5.2-2.4-7.1,1c-7.1-1.3-7.8,2.8-11.1,5.2c-0.9-0.6-7,0.5-7.6,1.5c-0.5,0.8-0.8,1.5-1.1,2.3
	c-0.1,0.5,0.7,2.2,0.7,2.7s-1.1-0.4-1.1,0c0,1.1,0.1,2,0.3,2.5c0.3,1.3-3-0.4-4.1,0.3c-1.1,0.7,0,3.9-1,4.7c-1.3,0.9-0.4,1.8,0.7,3
	c0.8,0.8,1.7,1.7,2.1,2.6c1,2.4-4.6,4.5-2,4s3.5,3.6,5.7,2.1c5-3.4,4.9-3.2,9.3,1.1c1.2,1.2,3.6-3.4,5.2-2.9c3,1,5.5,4.2,7.5,9.2
	c0.3,0.7-2.4,12.1-2.5,12.8c-0.3,1.7,7.8-2.2,7.8-0.3c0,2.5,4.4-0.6,5.7,1.5c0.2-0.2,9.1-4.3,9.6-4.6l6.2-6c4.1-7,5.6-15.4,4.3-23.4
	C449.9,15,447.9,10,444,6.6L444,6.6z"/>
<path class="st3" d="M324,495.2c0,0.7,0.5,1.2,1.2,1.2h218.3c0.7,0,1.2-0.5,1.2-1.2s-0.5-1.2-1.2-1.2H325.2
	C324.5,494,324,494.5,324,495.2z"/>
<path class="st3" d="M0,410.2c0,0.7,0.5,1.2,1.2,1.2h218.3c0.7,0,1.2-0.5,1.2-1.2s-0.5-1.2-1.2-1.2H1.2C0.5,409,0,409.5,0,410.2z"/>
</svg>
