<?xml version="1.0" encoding="utf-8"?>
<!-- Generator: Adobe Illustrator 24.0.2, SVG Export Plug-In . SVG Version: 6.00 Build 0)  -->
<svg version="1.1" id="Layer_1" xmlns="http://www.w3.org/2000/svg" xmlns:xlink="http://www.w3.org/1999/xlink" x="0px" y="0px"
	 viewBox="0 0 741 767.2" style="enable-background:new 0 0 741 767.2;" xml:space="preserve">
<style type="text/css">
	.st0{fill:#F2F2F2;}
	.st1{fill:#AACDBE;}
	.st2{fill:#2F2E41;}
	.st3{fill:#D6D6E3;}
	.st4{fill:#9F616A;}
	.st5{fill:#090814;}
	.st6{fill:#FFFFFF;}
	.st7{opacity:0.1;enable-background:new    ;}
</style>
<g transform="translate(691.645 336.975)">
	<path class="st0" d="M-428.3,60.3h81c6.8,0,12.3-5.5,12.3-12.3v-81c0-6.8-5.5-12.3-12.3-12.3h-81c-6.8,0-12.3,5.5-12.3,12.3v81
		C-440.6,54.8-435.1,60.3-428.3,60.3z M-347.3-43.4c5.7,0,10.4,4.6,10.4,10.4v81c0,5.7-4.6,10.4-10.4,10.4l0,0H-404
		c-19.1,0-34.6-15.5-34.6-34.6V-33c0-5.7,4.6-10.4,10.4-10.4l0,0L-347.3-43.4z"/>
	<path class="st1" d="M-428.3,60.3h81c6.8,0,12.3-5.5,12.3-12.3v-81c0-6.8-5.5-12.3-12.3-12.3h-81c-6.8,0-12.3,5.5-12.3,12.3v81
		C-440.6,54.8-435.1,60.3-428.3,60.3z"/>
	<ellipse class="st1" cx="-387.3" cy="-74" rx="10.9" ry="10.9"/>
</g>
<g transform="translate(829.494 213.059)">
	<path class="st2" d="M-428.3,60.3h81c6.8,0,12.3-5.5,12.3-12.3v-81c0-6.8-5.5-12.3-12.3-12.3h-81c-6.8,0-12.3,5.5-12.3,12.3v81
		C-440.6,54.8-435.1,60.3-428.3,60.3z M-347.3-43.4c5.7,0,10.4,4.6,10.4,10.4l0,0v81c0,5.7-4.6,10.4-10.4,10.4c0,0,0,0,0,0l0,0
		c-50.5,0-91.4-40.9-91.4-91.4c0,0,0,0,0,0l0,0c0-5.7,4.6-10.4,10.4-10.4l0,0L-347.3-43.4L-347.3-43.4z"/>
	<ellipse class="st2" cx="-387.3" cy="-74" rx="10.9" ry="10.9"/>
	<path class="st2" d="M-385,2c-3.5,1-7.2-1.1-8.2-4.7c-1-3.5,1.1-7.2,4.7-8.2s7.2,1.1,8.2,4.7c0.2,0.9,0.3,1.8,0.2,2.8
		c-0.4,2.5-2,4.7-3.4,6.8c-1.6,2.3-3.2,4.5-4.9,6.7c-3.8,5-7.9,9.8-12,14.5c-0.6,0.6-0.5,1.6,0.1,2.1c0.3,0.3,0.6,0.4,1,0.4
		l23.2,2.1c1.9,0.2,1.9-2.8,0-3l-23.2-2.1l1,2.5c4.5-5.3,9-10.5,13.2-16.1c2.1-2.6,4-5.3,5.7-8.2c1.5-2.5,2.7-5.3,2.2-8.3
		c-0.8-5.1-5.8-9.2-11-8.5c-5.3,0.9-9,5.8-8.4,11.2c0.8,5.6,7,9.4,12.4,8c0.8-0.2,1.2-1.1,1-1.9C-383.4,2.3-384.2,1.8-385,2L-385,2
		L-385,2z"/>
</g>
<g transform="translate(717.295 84.879)">
	<path class="st2" d="M-428.3,60.3h81c6.8,0,12.3-5.5,12.3-12.3v-81c0-6.8-5.5-12.3-12.3-12.3h-81c-6.8,0-12.3,5.5-12.3,12.3v81
		C-440.6,54.8-435.1,60.3-428.3,60.3z M-347.3-43.4c5.7,0,10.4,4.6,10.4,10.4v81c0,5.7-4.6,10.4-10.4,10.4l0,0l0,0
		c-50.5,0-91.4-40.9-91.4-91.4c0,0,0,0,0,0l0,0c0-5.7,4.6-10.4,10.4-10.4L-347.3-43.4z"/>
	<ellipse class="st2" cx="-387.3" cy="-74" rx="10.9" ry="10.9"/>
	<path class="st2" d="M-396.8-9.8c5.1-2.6,11.8-0.7,13.7,5c1.4,3.9-0.6,8.3-4.5,9.8c-1.1,0.4-2.2,0.5-3.4,0.4v3
		c3.4,0.1,6.6,1.5,9,3.8c2.2,2.3,3.1,5.5,2.3,8.6c-1.1,3.9-5.2,6.1-9,4.9c-2.1-0.6-3.9-2.2-4.7-4.3c-0.7-1.7-3.6-1-2.9,0.8
		c2,5.3,8,8,13.3,6c0.9-0.3,1.7-0.8,2.4-1.3c5.6-4.2,5.1-12.6,0.2-17.2c-2.9-2.6-6.7-4.2-10.7-4.3c-1.9-0.1-1.9,2.8,0,3
		c3.6,0.3,7-1.3,9.2-4.1c2.1-2.8,2.7-6.5,1.6-9.8c-2.5-7.6-11.2-10.2-18-6.8C-400-11.5-398.5-9-396.8-9.8L-396.8-9.8L-396.8-9.8z"/>
</g>
<g transform="translate(-89.424 -88)">
	<rect x="416.9" y="408.7" transform="matrix(0.141 -0.99 0.99 0.141 205.0899 1068.59)" class="st2" width="602.9" height="14.8"/>
	<rect x="590.5" y="846.6" class="st3" width="239.9" height="8.6"/>
	<path class="st3" d="M713.7,568.7L785,854.8l8.3-2.2l-71.2-286.1L713.7,568.7z"/>
	<circle class="st2" cx="713.5" cy="568.6" r="12.3"/>
</g>
<g transform="translate(440.646 349.416)">
	<path class="st4" d="M-277.6,40.9c0,0,14.8-2.6,36.8-22.5c17.4-15.8,40.8-12.7,49.9-10.7c0.8,0.2,1.4,1,1.2,1.8
		c-0.1,0.4-0.4,0.8-0.8,1c-3.7,2-9.3,4.9-12,5.3c0,0,5.5,5.7-0.3,8.7c-1.4,0.7-3.1,0.5-4.4-0.4c-2.8-2-10.6,2.6-21.9,5
		c0,0-44,45.5-54.2,37.8L-277.6,40.9z"/>
	<path class="st4" d="M-353.2-20.9c0,0-4.1,17.4,0,29.6l-18.4,2.6L-388,3.1V-7.6c0,0,7.7-16.4,5.6-35.3L-353.2-20.9z"/>
	<path class="st5" d="M-405.3,355.7c0,0-13.3,26.1-11.2,43.4s-17.4,2-15.3-8.2c0.4,12.4-5.7-43.3-8.6-56.4c-0.6-2.9,1-5.9,3.9-6.8
		c6.1-2,16.4-4.5,21.6-0.7C-407.4,332.7-405.3,355.7-405.3,355.7z"/>
	<path class="st5" d="M-354.8,384.4c0,0,17.4,22.5,22,23s7.7,7.7,0,9.2c-15.3,2.7-31.1,1.1-45.6-4.4c-3-1.2-4.8-4.2-4.4-7.4
		l2.9-21.9L-354.8,384.4z"/>
	<path class="st5" d="M-326.1,145.7l16.7,2.2c-2.3,19.5-2.2,39.1,0.2,58.6v70c0,0,0.3,6.2-12.5,15.1c-13.4,9.3-26.4,19.3-38.8,30
		l-46.4,40.2c0,0-18.4-22.5-15.8-35.8c0,0,30.7-9.7,34.8-25.6c2.3-9.1,14.2-16.7,24-21.4c12.6-6.1,19.2-20.2,15.9-33.8
		c-0.6-2.3-1.4-4.5-2.6-6.6c-8.2-14.3-19.9-46.5-19.9-46.5l22.5-42.9L-326.1,145.7z"/>
	<path class="st5" d="M-350.7,385.9c0,0-30.2,5.1-31.2,8.2s0-4.1,0-4.1s-17.4-52.6-13.3-99.1s-5.1-77.2-5.1-77.2
		s-10.7-34.8-4.6-54.7s70.5-11.2,70.5-11.2s-22.5,52.6-22,77.7c0,0-2.6,75.6-7.2,84.3C-363.5,309.7-356.3,383.8-350.7,385.9z"/>
	<path class="st6" d="M-354.2-7.6c0,0-3.1,18.9-33.7,10.7l20.4,155.4c0,0,59.3,2,58.8-5.1l-12.2-94L-354.2-7.6z"/>
	<path class="st1" d="M-355-8.1c4.6,3.6,10,5.8,15.8,6.5c5.1,0.4,10,1.9,14.5,4.3c5.3,2.9,11.1,7.2,12.9,12.4
		c3.6,10.2,26.1,27.1,36.3,23.5l-3.6,30.7c0,0-29.1-1.5-34.2-12.8l8.7,109.4h-7.7c0,0-4.1-29.6-7.2-35.8c-3.1-6.1-9.2-39.9-9.7-48
		s-8.2-55.2-14.8-63.3L-355-5L-355-8.1z"/>
	<path class="st7" d="M-381.1-27.8c0.7-4.8-0.7-7.9-1.3-13.5l29.1,22c0,0-0.7,3-1.2,7.3c-1.5,0.2-3,0.4-4.4,0.4
		C-369-11.7-376.3-19.6-381.1-27.8z"/>
	<ellipse class="st4" cx="-358.9" cy="-40.8" rx="27.6" ry="27.6"/>
	<path class="st5" d="M-331.1-64.3c0.2-4.3-0.5-8.6-2.1-12.6c0.9,1.3,0.6,3.1-0.5,4.1c-0.8-4.4-3.1-8.4-6.4-11.3
		c1.8,0.3,2.7,2.5,2.3,4.3c-0.6,1.7-1.7,3.3-3.1,4.4c0.2-2.7-1.6-5.2-3.9-6.7c-2.4-1.4-4.9-2.3-7.6-2.7c1.9,0.7,3.1,2.5,2.9,4.5
		c0,0.3-0.1,0.6-0.4,0.9c-0.3,0.2-0.6,0.2-0.9,0.2c-2.7,0.1-5.3,0-8-0.2c-3.3-0.4-6.5-0.5-9.8-0.5c-10.3,0.4-20.6,7.4-22.9,17.4
		c-0.5,2.4-0.7,4.9-0.7,7.4l-0.5,12.6c-0.3,3.7-0.1,7.4,0.5,11c1.4,6.8,5.8,12.6,12,15.9c3.7-5.4,4-12.3,5.3-18.6
		c0.2-1.5,0.8-2.9,1.6-4.1c0.9-1.2,2.5-1.8,3.9-1.3c1.4,0.6,2,2.7,0.8,3.6c1,1.2,2.9,0.3,4.1-0.8c3.2-3.1,5.5-7.1,6.4-11.4
		c0.5-2.2,0.9-4.9,3.1-5.7c0.7-0.2,1.5-0.3,2.3-0.2c4.5,0.3,11.5,2.2,15.9,0.7C-332.8-54.7-331.1-60.6-331.1-64.3z"/>
	<path class="st1" d="M-386.2-13l-33,28.4c0,0-19.4,19.9-11.2,52.1c0,0,3.6,47,7.7,49.1c0,0,14.3,28.6,15.3,55.7
		c0,0,20.2-40.6,28.9-17.1s27.9,28.9,27.9,28.9l-11.2-139C-361.9,45.1-390.3-4.3-386.2-13z"/>
	<path class="st4" d="M-401.3,106.9c0,0-8.2-5.6-21.5,9.7l32.7,59.3l11-16.6C-379,159.3-402.3,113.5-401.3,106.9z"/>
	<path class="st7" d="M-395.9,46.8c0,0-1,36.8,3.1,50.6"/>
	<path class="st7" d="M-313.1,54c0,0-6.1-2-6.1-7.2"/>
</g>
<path class="st2" d="M494.7,370l1.3,8.1c-3.8-4.8-10.5-10.4-16-14.3c6.6,0.5,15,0.4,20.6-1l-5.3,5.6c29.3,8.1,55.8,1.4,63.7-16.3
	l2.1,0.9C552.8,371.6,525.1,378.5,494.7,370z"/>
<path class="st2" d="M543.7,106.1l6.1-5.5c-5.9,1.3-14.7,1.5-21.5,1.1c5.4,3.8,11.9,9.2,15.4,13.8l-0.6-7.7
	c27.8,12.1,44.3,34,39.2,52.7l2.2,0.6C589.8,141.5,572.7,118.7,543.7,106.1z"/>
<path class="st2" d="M536.6,249l1.3,8.1c-3.8-4.8-10.5-10.4-16-14.3c6.6,0.5,15,0.4,20.6-1l-5.3,5.6c29.3,8.1,55.8,1.4,63.7-16.3
	l2.1,0.9C594.7,250.6,567,257.5,536.6,249z"/>
</svg>
